<svg width="204" height="85" viewBox="0 0 204 85" fill="none" xmlns="http://www.w3.org/2000/svg">
<path d="M17.6051 35H11.9801L22.2216 5.90909H28.7273L38.983 35H33.358L25.5881 11.875H25.3608L17.6051 35ZM17.7898 23.5938H33.1307V27.8267H17.7898V23.5938ZM42.8146 35V5.90909H47.9567V16.7898H48.1697C48.4349 16.2595 48.8089 15.696 49.2919 15.0994C49.7749 14.4934 50.4283 13.9773 51.2521 13.5511C52.076 13.1155 53.1271 12.8977 54.4055 12.8977C56.0911 12.8977 57.611 13.3286 58.9652 14.1903C60.3288 15.0426 61.4084 16.3068 62.2038 17.983C63.0088 19.6496 63.4112 21.6951 63.4112 24.1193C63.4112 26.5152 63.0182 28.5511 62.2322 30.2273C61.4463 31.9034 60.3762 33.1818 59.022 34.0625C57.6679 34.9432 56.1338 35.3835 54.4197 35.3835C53.1697 35.3835 52.1328 35.1752 51.3089 34.7585C50.4851 34.3419 49.8222 33.84 49.3203 33.2528C48.8279 32.6562 48.4444 32.0928 48.1697 31.5625H47.8714V35H42.8146ZM47.8572 24.0909C47.8572 25.5019 48.0561 26.7377 48.4538 27.7983C48.861 28.8589 49.4434 29.6875 50.201 30.2841C50.968 30.8712 51.8961 31.1648 52.9851 31.1648C54.1214 31.1648 55.0732 30.8617 55.8402 30.2557C56.6072 29.6402 57.1849 28.8021 57.5732 27.7415C57.9709 26.6714 58.1697 25.4545 58.1697 24.0909C58.1697 22.7367 57.9756 21.5341 57.5874 20.483C57.1991 19.4318 56.6214 18.608 55.8544 18.0114C55.0874 17.4148 54.1309 17.1165 52.9851 17.1165C51.8866 17.1165 50.9538 17.4053 50.1868 17.983C49.4197 18.5606 48.8374 19.3703 48.4396 20.4119C48.0514 21.4536 47.8572 22.6799 47.8572 24.0909ZM77.2997 35.4261C75.169 35.4261 73.3224 34.9574 71.7599 34.0199C70.1974 33.0824 68.9853 31.7708 68.1236 30.0852C67.2713 28.3996 66.8452 26.4299 66.8452 24.1761C66.8452 21.9223 67.2713 19.9479 68.1236 18.2528C68.9853 16.5578 70.1974 15.2415 71.7599 14.304C73.3224 13.3665 75.169 12.8977 77.2997 12.8977C79.4304 12.8977 81.277 13.3665 82.8395 14.304C84.402 15.2415 85.6094 16.5578 86.4616 18.2528C87.3234 19.9479 87.7543 21.9223 87.7543 24.1761C87.7543 26.4299 87.3234 28.3996 86.4616 30.0852C85.6094 31.7708 84.402 33.0824 82.8395 34.0199C81.277 34.9574 79.4304 35.4261 77.2997 35.4261ZM77.3281 31.3068C78.4834 31.3068 79.4493 30.9896 80.2259 30.3551C81.0024 29.7112 81.58 28.8494 81.9588 27.7699C82.3471 26.6903 82.5412 25.4877 82.5412 24.1619C82.5412 22.8267 82.3471 21.6193 81.9588 20.5398C81.58 19.4508 81.0024 18.5843 80.2259 17.9403C79.4493 17.2964 78.4834 16.9744 77.3281 16.9744C76.1444 16.9744 75.1596 17.2964 74.3736 17.9403C73.5971 18.5843 73.0147 19.4508 72.6264 20.5398C72.2476 21.6193 72.0582 22.8267 72.0582 24.1619C72.0582 25.4877 72.2476 26.6903 72.6264 27.7699C73.0147 28.8494 73.5971 29.7112 74.3736 30.3551C75.1596 30.9896 76.1444 31.3068 77.3281 31.3068ZM106.025 25.8239V13.1818H111.167V35H106.181V31.1222H105.954C105.461 32.3437 104.652 33.3428 103.525 34.1193C102.407 34.8958 101.03 35.2841 99.3913 35.2841C97.9614 35.2841 96.6972 34.9669 95.5987 34.3324C94.5097 33.6884 93.6574 32.7557 93.0419 31.5341C92.4264 30.303 92.1186 28.8163 92.1186 27.0739V13.1818H97.2607V26.2784C97.2607 27.661 97.6394 28.7595 98.397 29.5739C99.1546 30.3883 100.149 30.7955 101.38 30.7955C102.138 30.7955 102.871 30.6108 103.582 30.2415C104.292 29.8722 104.874 29.3229 105.329 28.5938C105.793 27.8551 106.025 26.9318 106.025 25.8239ZM127.349 13.1818V17.1591H114.807V13.1818H127.349ZM117.903 7.95455H123.045V28.4375C123.045 29.1288 123.15 29.6591 123.358 30.0284C123.576 30.3883 123.86 30.6345 124.21 30.767C124.561 30.8996 124.949 30.9659 125.375 30.9659C125.697 30.9659 125.991 30.9422 126.256 30.8949C126.53 30.8475 126.739 30.8049 126.881 30.767L127.747 34.7869C127.473 34.8816 127.08 34.9858 126.568 35.0994C126.066 35.2131 125.451 35.2794 124.722 35.2983C123.434 35.3362 122.274 35.142 121.241 34.7159C120.209 34.2803 119.39 33.608 118.784 32.6989C118.188 31.7898 117.894 30.6534 117.903 29.2898V7.95455Z" fill="#FF4D00"/>
<path d="M151.089 35.4261C148.958 35.4261 147.112 34.9574 145.549 34.0199C143.987 33.0824 142.774 31.7708 141.913 30.0852C141.06 28.3996 140.634 26.4299 140.634 24.1761C140.634 21.9223 141.06 19.9479 141.913 18.2528C142.774 16.5578 143.987 15.2415 145.549 14.304C147.112 13.3665 148.958 12.8977 151.089 12.8977C153.219 12.8977 155.066 13.3665 156.629 14.304C158.191 15.2415 159.398 16.5578 160.251 18.2528C161.112 19.9479 161.543 21.9223 161.543 24.1761C161.543 26.4299 161.112 28.3996 160.251 30.0852C159.398 31.7708 158.191 33.0824 156.629 34.0199C155.066 34.9574 153.219 35.4261 151.089 35.4261ZM151.117 31.3068C152.272 31.3068 153.238 30.9896 154.015 30.3551C154.791 29.7112 155.369 28.8494 155.748 27.7699C156.136 26.6903 156.33 25.4877 156.33 24.1619C156.33 22.8267 156.136 21.6193 155.748 20.5398C155.369 19.4508 154.791 18.5843 154.015 17.9403C153.238 17.2964 152.272 16.9744 151.117 16.9744C149.933 16.9744 148.949 17.2964 148.163 17.9403C147.386 18.5843 146.804 19.4508 146.415 20.5398C146.037 21.6193 145.847 22.8267 145.847 24.1619C145.847 25.4877 146.037 26.6903 146.415 27.7699C146.804 28.8494 147.386 29.7112 148.163 30.3551C148.949 30.9896 149.933 31.3068 151.117 31.3068ZM179.814 25.8239V13.1818H184.956V35H179.97V31.1222H179.743C179.25 32.3437 178.441 33.3428 177.314 34.1193C176.196 34.8958 174.819 35.2841 173.18 35.2841C171.75 35.2841 170.486 34.9669 169.388 34.3324C168.299 33.6884 167.446 32.7557 166.831 31.5341C166.215 30.303 165.908 28.8163 165.908 27.0739V13.1818H171.05V26.2784C171.05 27.661 171.429 28.7595 172.186 29.5739C172.944 30.3883 173.938 30.7955 175.169 30.7955C175.927 30.7955 176.661 30.6108 177.371 30.2415C178.081 29.8722 178.663 29.3229 179.118 28.5938C179.582 27.8551 179.814 26.9318 179.814 25.8239ZM190.244 35V13.1818H195.229V16.8182H195.457C195.854 15.5587 196.536 14.5881 197.502 13.9062C198.478 13.215 199.59 12.8693 200.84 12.8693C201.124 12.8693 201.442 12.8835 201.792 12.9119C202.152 12.9309 202.45 12.964 202.687 13.0114V17.7415C202.469 17.6657 202.123 17.5994 201.65 17.5426C201.186 17.4763 200.736 17.4432 200.3 17.4432C199.363 17.4432 198.52 17.6468 197.772 18.054C197.033 18.4517 196.451 19.0057 196.025 19.7159C195.599 20.4261 195.386 21.2453 195.386 22.1733V35H190.244Z" fill="#1A1A1A"/>
<path d="M20.1193 78.3196C18.4858 78.3196 17.0831 77.9609 15.9112 77.2436C14.7464 76.5263 13.848 75.5355 13.2159 74.2713C12.5909 73 12.2784 71.5369 12.2784 69.8821C12.2784 68.2202 12.598 66.7536 13.2372 65.4822C13.8764 64.2038 14.7784 63.2095 15.9432 62.4993C17.1151 61.782 18.5 61.4233 20.098 61.4233C21.4261 61.4233 22.6016 61.6683 23.6243 62.1584C24.6541 62.6413 25.4744 63.3267 26.0852 64.2145C26.696 65.0952 27.044 66.125 27.1293 67.304H23.4432C23.294 66.5156 22.9389 65.8587 22.3778 65.3331C21.8239 64.8004 21.0817 64.5341 20.1513 64.5341C19.3629 64.5341 18.6705 64.7472 18.0739 65.1733C17.4773 65.5923 17.0121 66.196 16.6783 66.9844C16.3516 67.7727 16.1882 68.7173 16.1882 69.8182C16.1882 70.9332 16.3516 71.892 16.6783 72.6946C17.005 73.4901 17.4631 74.1044 18.0526 74.5376C18.6491 74.9638 19.3487 75.1768 20.1513 75.1768C20.7195 75.1768 21.2273 75.0703 21.6747 74.8572C22.1293 74.6371 22.5092 74.321 22.8146 73.9091C23.12 73.4972 23.3295 72.9964 23.4432 72.407H27.1293C27.0369 73.5646 26.696 74.5909 26.1065 75.4858C25.517 76.3736 24.7145 77.0696 23.6989 77.5739C22.6832 78.071 21.4901 78.3196 20.1193 78.3196ZM37.4338 78.3196C35.8358 78.3196 34.4508 77.968 33.2789 77.2649C32.1071 76.5618 31.198 75.5781 30.5517 74.3139C29.9125 73.0497 29.5929 71.5724 29.5929 69.8821C29.5929 68.1918 29.9125 66.7109 30.5517 65.4396C31.198 64.1683 32.1071 63.1811 33.2789 62.478C34.4508 61.7749 35.8358 61.4233 37.4338 61.4233C39.0318 61.4233 40.4167 61.7749 41.5886 62.478C42.7605 63.1811 43.666 64.1683 44.3052 65.4396C44.9515 66.7109 45.2747 68.1918 45.2747 69.8821C45.2747 71.5724 44.9515 73.0497 44.3052 74.3139C43.666 75.5781 42.7605 76.5618 41.5886 77.2649C40.4167 77.968 39.0318 78.3196 37.4338 78.3196ZM37.4551 75.2301C38.3216 75.2301 39.046 74.9922 39.6284 74.5163C40.2108 74.0334 40.644 73.3871 40.9281 72.5774C41.2193 71.7678 41.3649 70.8658 41.3649 69.8714C41.3649 68.87 41.2193 67.9645 40.9281 67.1548C40.644 66.3381 40.2108 65.6882 39.6284 65.2053C39.046 64.7223 38.3216 64.4808 37.4551 64.4808C36.5673 64.4808 35.8287 64.7223 35.2392 65.2053C34.6568 65.6882 34.22 66.3381 33.9288 67.1548C33.6447 67.9645 33.5027 68.87 33.5027 69.8714C33.5027 70.8658 33.6447 71.7678 33.9288 72.5774C34.22 73.3871 34.6568 74.0334 35.2392 74.5163C35.8287 74.9922 36.5673 75.2301 37.4551 75.2301ZM48.5479 78V61.6364H52.234V64.4169H52.4258C52.7667 63.4794 53.3313 62.7479 54.1197 62.2223C54.908 61.6896 55.8491 61.4233 56.9428 61.4233C58.0508 61.4233 58.9847 61.6932 59.7447 62.233C60.5117 62.7656 61.0515 63.4936 61.364 64.4169H61.5344C61.8967 63.5078 62.5075 62.7834 63.3668 62.2436C64.2333 61.6967 65.2596 61.4233 66.4457 61.4233C67.9514 61.4233 69.18 61.8991 70.1317 62.8509C71.0835 63.8026 71.5593 65.1911 71.5593 67.0163V78H67.6921V67.6129C67.6921 66.5973 67.4222 65.8551 66.8825 65.3864C66.3427 64.9105 65.6822 64.6726 64.9009 64.6726C63.9705 64.6726 63.2425 64.9638 62.717 65.5462C62.1985 66.1214 61.9393 66.8707 61.9393 67.794V78H58.1573V67.4531C58.1573 66.608 57.9016 65.9332 57.3903 65.429C56.886 64.9247 56.2255 64.6726 55.4087 64.6726C54.8548 64.6726 54.3505 64.8146 53.896 65.0987C53.4414 65.3757 53.0792 65.7699 52.8093 66.2812C52.5394 66.7855 52.4045 67.375 52.4045 68.0497V78H48.5479ZM75.4718 84.1364V61.6364H79.2644V64.3423H79.4881C79.687 63.9446 79.9675 63.522 80.3297 63.0746C80.6919 62.62 81.182 62.233 81.7999 61.9134C82.4178 61.5866 83.2061 61.4233 84.165 61.4233C85.4292 61.4233 86.5691 61.7464 87.5847 62.3928C88.6074 63.032 89.4171 63.9801 90.0137 65.2372C90.6174 66.4872 90.9192 68.0213 90.9192 69.8395C90.9192 71.6364 90.6245 73.1634 90.035 74.4205C89.4455 75.6776 88.6429 76.6364 87.6273 77.2969C86.6117 77.9574 85.4611 78.2876 84.1756 78.2876C83.2381 78.2876 82.4604 78.1314 81.8425 77.8189C81.2246 77.5064 80.7275 77.13 80.351 76.6896C79.9817 76.2422 79.6941 75.8196 79.4881 75.4219H79.3283V84.1364H75.4718ZM79.2537 69.8182C79.2537 70.8764 79.4029 71.8033 79.7012 72.5987C80.0066 73.3942 80.4434 74.0156 81.0115 74.4631C81.5868 74.9034 82.2828 75.1236 83.0996 75.1236C83.9519 75.1236 84.6657 74.8963 85.2409 74.4418C85.8162 73.9801 86.2495 73.3516 86.5407 72.5561C86.839 71.7536 86.9881 70.8409 86.9881 69.8182C86.9881 68.8026 86.8425 67.9006 86.5513 67.1122C86.2601 66.3239 85.8269 65.706 85.2516 65.2585C84.6763 64.8111 83.959 64.5874 83.0996 64.5874C82.2757 64.5874 81.5762 64.804 81.0009 65.2372C80.4256 65.6705 79.9888 66.2777 79.6905 67.0589C79.3993 67.8402 79.2537 68.7599 79.2537 69.8182ZM98.9306 78.3303C97.8936 78.3303 96.9597 78.1456 96.1287 77.7763C95.3049 77.3999 94.6515 76.8459 94.1685 76.1143C93.6926 75.3828 93.4547 74.4808 93.4547 73.4084C93.4547 72.4851 93.6252 71.7216 93.9661 71.1179C94.307 70.5142 94.7722 70.0312 95.3617 69.669C95.9512 69.3068 96.6152 69.0334 97.3539 68.8487C98.0996 68.657 98.8702 68.5185 99.6657 68.4332C100.624 68.3338 101.402 68.245 101.999 68.1669C102.595 68.0817 103.029 67.9538 103.298 67.7834C103.575 67.6058 103.714 67.3324 103.714 66.9631V66.8991C103.714 66.0966 103.476 65.4751 103 65.0348C102.524 64.5945 101.839 64.3743 100.944 64.3743C99.9995 64.3743 99.2502 64.5803 98.6962 64.9922C98.1493 65.4041 97.78 65.8906 97.5882 66.4517L93.9874 65.9403C94.2715 64.946 94.7402 64.1151 95.3936 63.4474C96.0471 62.7727 96.8461 62.2685 97.7907 61.9347C98.7353 61.5938 99.7793 61.4233 100.923 61.4233C101.711 61.4233 102.496 61.5156 103.277 61.7003C104.058 61.8849 104.772 62.1903 105.419 62.6165C106.065 63.0355 106.583 63.6072 106.974 64.3317C107.372 65.0561 107.57 65.9616 107.57 67.0483V78H103.863V75.7521H103.735C103.501 76.2067 103.171 76.6328 102.744 77.0305C102.325 77.4212 101.796 77.7372 101.157 77.9787C100.525 78.2131 99.7828 78.3303 98.9306 78.3303ZM99.932 75.4964C100.706 75.4964 101.377 75.3437 101.945 75.0384C102.514 74.7259 102.95 74.3139 103.256 73.8026C103.568 73.2912 103.725 72.7337 103.725 72.13V70.2017C103.604 70.3011 103.398 70.3935 103.107 70.4787C102.823 70.5639 102.503 70.6385 102.148 70.7024C101.793 70.7663 101.441 70.8232 101.093 70.8729C100.745 70.9226 100.443 70.9652 100.188 71.0007C99.6124 71.0788 99.0975 71.2067 98.6429 71.3842C98.1884 71.5618 97.8297 71.8104 97.5669 72.13C97.3042 72.4425 97.1728 72.8473 97.1728 73.3445C97.1728 74.0547 97.432 74.5909 97.9505 74.9531C98.4689 75.3153 99.1294 75.4964 99.932 75.4964ZM115.305 68.4119V78H111.448V61.6364H115.134V64.4169H115.326C115.703 63.5007 116.303 62.7727 117.127 62.233C117.958 61.6932 118.984 61.4233 120.205 61.4233C121.335 61.4233 122.318 61.6648 123.156 62.1477C124.002 62.6307 124.655 63.3303 125.117 64.2464C125.585 65.1626 125.816 66.2741 125.809 67.581V78H121.953V68.1776C121.953 67.0838 121.669 66.228 121.1 65.6101C120.539 64.9922 119.762 64.6832 118.767 64.6832C118.093 64.6832 117.492 64.8324 116.967 65.1307C116.448 65.4219 116.04 65.8445 115.742 66.3984C115.45 66.9524 115.305 67.6236 115.305 68.4119ZM131.541 84.1364C131.015 84.1364 130.529 84.0938 130.081 84.0085C129.641 83.9304 129.289 83.8381 129.026 83.7315L129.921 80.7273C130.482 80.8906 130.983 80.9688 131.423 80.9616C131.864 80.9545 132.251 80.8161 132.585 80.5462C132.926 80.2834 133.213 79.843 133.448 79.2251L133.778 78.3409L127.844 61.6364H131.935L135.706 73.9943H135.877L139.659 61.6364H143.76L137.208 79.9815C136.903 80.848 136.498 81.5902 135.994 82.2081C135.49 82.8331 134.872 83.3089 134.14 83.6357C133.416 83.9695 132.549 84.1364 131.541 84.1364Z" fill="#1A1A1A"/>
<path d="M0.100964 51.7895C29.2191 48.8867 99.533 43.9202 147.844 47.2765C123.923 43.6474 60.8857 39.4693 0.100964 51.7895Z" fill="black" stroke="black"/>
</svg>
