<svg width="121" height="32" viewBox="0 0 121 32" fill="none" xmlns="http://www.w3.org/2000/svg">
<rect width="121" height="32" rx="16" fill="white"/>
<path fill-rule="evenodd" clip-rule="evenodd" d="M26.2534 13.7666L24 8.65723L21.7467 13.7666L16.6354 16.0199L21.7467 18.2732L24 23.3852L26.2534 18.2732L31.3647 16.0199L26.2534 13.7666Z" fill="#1A1A1A"/>
<path d="M41.4453 9.625H45.5781C46.4427 9.625 47.1849 9.75521 47.8047 10.0156C48.4245 10.276 48.901 10.6615 49.2344 11.1719C49.5677 11.6823 49.7344 12.3099 49.7344 13.0547C49.7344 13.6432 49.6302 14.1536 49.4219 14.5859C49.2135 15.0182 48.9193 15.3802 48.5391 15.6719C48.1641 15.9635 47.7214 16.1927 47.2109 16.3594L46.5391 16.7031H42.8906L42.875 15.0078H45.6016C46.0443 15.0078 46.4115 14.9297 46.7031 14.7734C46.9948 14.6172 47.2135 14.401 47.3594 14.125C47.5104 13.849 47.5859 13.5339 47.5859 13.1797C47.5859 12.7995 47.513 12.4714 47.3672 12.1953C47.2214 11.9141 47 11.6979 46.7031 11.5469C46.4062 11.3958 46.0312 11.3203 45.5781 11.3203H43.5938V21H41.4453V9.625ZM47.8672 21L45.2344 15.9062L47.5078 15.8984L50.1719 20.8906V21H47.8672ZM56.2578 21.1562C55.6172 21.1562 55.0417 21.0521 54.5312 20.8438C54.0208 20.6354 53.5859 20.3464 53.2266 19.9766C52.8724 19.6016 52.599 19.1667 52.4062 18.6719C52.2188 18.1719 52.125 17.6354 52.125 17.0625V16.75C52.125 16.099 52.2188 15.5078 52.4062 14.9766C52.5938 14.4401 52.8594 13.9792 53.2031 13.5938C53.5469 13.2083 53.9583 12.9115 54.4375 12.7031C54.9167 12.4948 55.4453 12.3906 56.0234 12.3906C56.6224 12.3906 57.151 12.4922 57.6094 12.6953C58.0677 12.8932 58.4505 13.1745 58.7578 13.5391C59.0651 13.9036 59.2969 14.3411 59.4531 14.8516C59.6094 15.3568 59.6875 15.9167 59.6875 16.5312V17.3984H53.0625V15.9766H57.6562V15.8203C57.6458 15.4922 57.5833 15.1927 57.4688 14.9219C57.3542 14.6458 57.1771 14.4271 56.9375 14.2656C56.6979 14.099 56.388 14.0156 56.0078 14.0156C55.7005 14.0156 55.4323 14.0833 55.2031 14.2188C54.9792 14.349 54.7917 14.5365 54.6406 14.7812C54.4948 15.0208 54.3854 15.3073 54.3125 15.6406C54.2396 15.974 54.2031 16.3438 54.2031 16.75V17.0625C54.2031 17.4167 54.25 17.7448 54.3438 18.0469C54.4427 18.349 54.5859 18.612 54.7734 18.8359C54.9661 19.0547 55.1953 19.2266 55.4609 19.3516C55.7318 19.4714 56.0391 19.5312 56.3828 19.5312C56.8151 19.5312 57.2057 19.4479 57.5547 19.2812C57.9089 19.1094 58.2161 18.8568 58.4766 18.5234L59.5156 19.6016C59.3385 19.862 59.099 20.112 58.7969 20.3516C58.5 20.5911 58.1406 20.7865 57.7188 20.9375C57.2969 21.0833 56.8099 21.1562 56.2578 21.1562ZM67.4453 12.5469H69.3203V20.7422C69.3203 21.5078 69.1536 22.1562 68.8203 22.6875C68.4922 23.224 68.0312 23.6302 67.4375 23.9062C66.8438 24.1875 66.1536 24.3281 65.3672 24.3281C65.0286 24.3281 64.6615 24.2812 64.2656 24.1875C63.875 24.0938 63.4974 23.9453 63.1328 23.7422C62.7734 23.5443 62.474 23.2865 62.2344 22.9688L63.1641 21.75C63.4453 22.0781 63.763 22.3255 64.1172 22.4922C64.4714 22.6641 64.8542 22.75 65.2656 22.75C65.6823 22.75 66.0365 22.6719 66.3281 22.5156C66.625 22.3646 66.8516 22.1406 67.0078 21.8438C67.1693 21.5521 67.25 21.1927 67.25 20.7656V14.4766L67.4453 12.5469ZM61.7344 16.875V16.7109C61.7344 16.0651 61.8125 15.4792 61.9688 14.9531C62.125 14.4219 62.349 13.9661 62.6406 13.5859C62.9375 13.2057 63.2943 12.9115 63.7109 12.7031C64.1328 12.4948 64.6068 12.3906 65.1328 12.3906C65.6901 12.3906 66.1589 12.4922 66.5391 12.6953C66.9245 12.8984 67.2422 13.1875 67.4922 13.5625C67.7474 13.9375 67.9453 14.3828 68.0859 14.8984C68.2318 15.4089 68.3438 15.9714 68.4219 16.5859V17.0312C68.349 17.6302 68.2318 18.1797 68.0703 18.6797C67.9141 19.1797 67.7057 19.6172 67.4453 19.9922C67.1849 20.362 66.862 20.6484 66.4766 20.8516C66.0911 21.0547 65.638 21.1562 65.1172 21.1562C64.5964 21.1562 64.1276 21.0495 63.7109 20.8359C63.2943 20.6224 62.9375 20.3229 62.6406 19.9375C62.349 19.5521 62.125 19.099 61.9688 18.5781C61.8125 18.0573 61.7344 17.4896 61.7344 16.875ZM63.7969 16.7109V16.875C63.7969 17.2396 63.8333 17.5807 63.9062 17.8984C63.9792 18.2161 64.0911 18.4974 64.2422 18.7422C64.3932 18.9818 64.5833 19.1693 64.8125 19.3047C65.0417 19.4401 65.3151 19.5078 65.6328 19.5078C66.0599 19.5078 66.4089 19.4193 66.6797 19.2422C66.9557 19.0599 67.1641 18.8125 67.3047 18.5C67.4505 18.1823 67.5443 17.8255 67.5859 17.4297V16.2031C67.5599 15.8906 67.5026 15.6016 67.4141 15.3359C67.3307 15.0703 67.2135 14.8411 67.0625 14.6484C66.9115 14.4557 66.7188 14.3047 66.4844 14.1953C66.25 14.0859 65.9714 14.0312 65.6484 14.0312C65.3359 14.0312 65.0625 14.1016 64.8281 14.2422C64.5938 14.3776 64.401 14.5677 64.25 14.8125C64.099 15.0573 63.9844 15.3411 63.9062 15.6641C63.8333 15.987 63.7969 16.3359 63.7969 16.7109ZM74.3672 12.5469V21H72.2969V12.5469H74.3672ZM72.1562 10.3359C72.1562 10.0286 72.2604 9.77344 72.4688 9.57031C72.6823 9.36719 72.9688 9.26562 73.3281 9.26562C73.6875 9.26562 73.9714 9.36719 74.1797 9.57031C74.3932 9.77344 74.5 10.0286 74.5 10.3359C74.5 10.638 74.3932 10.8906 74.1797 11.0938C73.9714 11.2969 73.6875 11.3984 73.3281 11.3984C72.9688 11.3984 72.6823 11.2969 72.4688 11.0938C72.2604 10.8906 72.1562 10.638 72.1562 10.3359ZM76.9688 16.8594V16.6953C76.9688 16.0755 77.0573 15.5052 77.2344 14.9844C77.4115 14.4583 77.6693 14.0026 78.0078 13.6172C78.3464 13.2318 78.7604 12.9323 79.25 12.7188C79.7396 12.5 80.2969 12.3906 80.9219 12.3906C81.5573 12.3906 82.1198 12.5 82.6094 12.7188C83.1042 12.9323 83.5208 13.2318 83.8594 13.6172C84.1979 14.0026 84.4557 14.4583 84.6328 14.9844C84.8099 15.5052 84.8984 16.0755 84.8984 16.6953V16.8594C84.8984 17.474 84.8099 18.0443 84.6328 18.5703C84.4557 19.0911 84.1979 19.5469 83.8594 19.9375C83.5208 20.3229 83.1068 20.6224 82.6172 20.8359C82.1276 21.0495 81.5677 21.1562 80.9375 21.1562C80.3125 21.1562 79.7526 21.0495 79.2578 20.8359C78.763 20.6224 78.3464 20.3229 78.0078 19.9375C77.6693 19.5469 77.4115 19.0911 77.2344 18.5703C77.0573 18.0443 76.9688 17.474 76.9688 16.8594ZM79.0312 16.6953V16.8594C79.0312 17.2292 79.0677 17.5755 79.1406 17.8984C79.2135 18.2214 79.3255 18.5052 79.4766 18.75C79.6276 18.9948 79.8229 19.1875 80.0625 19.3281C80.3073 19.4635 80.599 19.5312 80.9375 19.5312C81.2708 19.5312 81.5573 19.4635 81.7969 19.3281C82.0365 19.1875 82.2318 18.9948 82.3828 18.75C82.5391 18.5052 82.6536 18.2214 82.7266 17.8984C82.7995 17.5755 82.8359 17.2292 82.8359 16.8594V16.6953C82.8359 16.3307 82.7995 15.9896 82.7266 15.6719C82.6536 15.349 82.5391 15.0651 82.3828 14.8203C82.2318 14.5703 82.0339 14.375 81.7891 14.2344C81.5495 14.0885 81.2604 14.0156 80.9219 14.0156C80.5885 14.0156 80.3021 14.0885 80.0625 14.2344C79.8229 14.375 79.6276 14.5703 79.4766 14.8203C79.3255 15.0651 79.2135 15.349 79.1406 15.6719C79.0677 15.9896 79.0312 16.3307 79.0312 16.6953ZM89.4219 14.3516V21H87.3594V12.5469H89.2969L89.4219 14.3516ZM89.0938 16.4688H88.4844C88.4896 15.8542 88.5729 15.2969 88.7344 14.7969C88.8958 14.2969 89.1224 13.8672 89.4141 13.5078C89.7109 13.1484 90.0625 12.8724 90.4688 12.6797C90.875 12.487 91.3281 12.3906 91.8281 12.3906C92.2344 12.3906 92.6016 12.4479 92.9297 12.5625C93.2578 12.6771 93.5391 12.8594 93.7734 13.1094C94.013 13.3594 94.1953 13.6875 94.3203 14.0938C94.4505 14.4948 94.5156 14.9896 94.5156 15.5781V21H92.4375V15.5625C92.4375 15.1771 92.3802 14.8724 92.2656 14.6484C92.1562 14.4245 91.9948 14.2656 91.7812 14.1719C91.5729 14.0781 91.3151 14.0312 91.0078 14.0312C90.6901 14.0312 90.4115 14.0964 90.1719 14.2266C89.9375 14.3516 89.7396 14.526 89.5781 14.75C89.4219 14.974 89.3021 15.2318 89.2188 15.5234C89.1354 15.8151 89.0938 16.1302 89.0938 16.4688ZM101.984 18.6875C101.984 18.5104 101.938 18.3516 101.844 18.2109C101.75 18.0703 101.573 17.9427 101.312 17.8281C101.057 17.7083 100.682 17.5964 100.188 17.4922C99.75 17.3984 99.3464 17.2812 98.9766 17.1406C98.6068 17 98.2891 16.8307 98.0234 16.6328C97.7578 16.4297 97.5495 16.1927 97.3984 15.9219C97.2526 15.6458 97.1797 15.3281 97.1797 14.9688C97.1797 14.6198 97.2552 14.2917 97.4062 13.9844C97.5573 13.6719 97.776 13.3984 98.0625 13.1641C98.349 12.9245 98.6979 12.737 99.1094 12.6016C99.5208 12.4609 99.9844 12.3906 100.5 12.3906C101.219 12.3906 101.836 12.5078 102.352 12.7422C102.872 12.9766 103.271 13.2995 103.547 13.7109C103.823 14.1172 103.961 14.5755 103.961 15.0859H101.898C101.898 14.862 101.846 14.6589 101.742 14.4766C101.643 14.2943 101.49 14.1484 101.281 14.0391C101.073 13.9245 100.81 13.8672 100.492 13.8672C100.206 13.8672 99.9635 13.9141 99.7656 14.0078C99.5729 14.1016 99.4271 14.224 99.3281 14.375C99.2292 14.526 99.1797 14.6927 99.1797 14.875C99.1797 15.0104 99.2057 15.1328 99.2578 15.2422C99.3151 15.3464 99.4062 15.4427 99.5312 15.5312C99.6562 15.6198 99.8255 15.7005 100.039 15.7734C100.258 15.8464 100.526 15.9167 100.844 15.9844C101.474 16.1094 102.023 16.276 102.492 16.4844C102.966 16.6875 103.336 16.9583 103.602 17.2969C103.867 17.6354 104 18.0677 104 18.5938C104 18.9688 103.919 19.3125 103.758 19.625C103.596 19.9323 103.362 20.2005 103.055 20.4297C102.747 20.6589 102.38 20.8385 101.953 20.9688C101.526 21.0938 101.044 21.1562 100.508 21.1562C99.7318 21.1562 99.0755 21.0182 98.5391 20.7422C98.0026 20.4609 97.5964 20.1068 97.3203 19.6797C97.0443 19.2474 96.9062 18.7995 96.9062 18.3359H98.8828C98.8984 18.6641 98.987 18.9271 99.1484 19.125C99.3099 19.3229 99.513 19.4661 99.7578 19.5547C100.008 19.638 100.271 19.6797 100.547 19.6797C100.859 19.6797 101.122 19.638 101.336 19.5547C101.549 19.4661 101.711 19.349 101.82 19.2031C101.93 19.0521 101.984 18.8802 101.984 18.6875Z" fill="#1A1A1A"/>
</svg>
