<svg width="118" height="32" viewBox="0 0 118 32" fill="none" xmlns="http://www.w3.org/2000/svg">
<rect x="0.5" y="0.5" width="117" height="31" rx="15.5" fill="white"/>
<rect x="0.5" y="0.5" width="117" height="31" rx="15.5" stroke="#E1E4ED"/>
<g clip-path="url(#clip0_79_8515)">
<path fill-rule="evenodd" clip-rule="evenodd" d="M26.2533 13.7667L24 8.65735L21.7466 13.7667L16.6353 16.02L21.7466 18.2733L24 23.3853L26.2533 18.2733L31.3646 16.02L26.2533 13.7667Z" fill="#1A1A1A"/>
</g>
<path d="M47.9453 17.2578H50.0938C50.0365 18.0182 49.8255 18.6927 49.4609 19.2812C49.0964 19.8646 48.5885 20.3229 47.9375 20.6562C47.2865 20.9896 46.4974 21.1562 45.5703 21.1562C44.8568 21.1562 44.2135 21.0312 43.6406 20.7812C43.0729 20.526 42.5859 20.1641 42.1797 19.6953C41.7786 19.2214 41.4714 18.6536 41.2578 17.9922C41.0443 17.3255 40.9375 16.5781 40.9375 15.75V14.8828C40.9375 14.0547 41.0469 13.3073 41.2656 12.6406C41.4844 11.974 41.7969 11.4062 42.2031 10.9375C42.6146 10.4635 43.1068 10.099 43.6797 9.84375C44.2578 9.58854 44.9036 9.46094 45.6172 9.46094C46.5443 9.46094 47.3281 9.63281 47.9688 9.97656C48.6094 10.3151 49.1068 10.7812 49.4609 11.375C49.8151 11.9688 50.0286 12.651 50.1016 13.4219H47.9531C47.9115 12.9427 47.8073 12.5365 47.6406 12.2031C47.4792 11.8698 47.2344 11.6172 46.9062 11.4453C46.5833 11.2682 46.1536 11.1797 45.6172 11.1797C45.2005 11.1797 44.8333 11.2578 44.5156 11.4141C44.2031 11.5703 43.9427 11.8047 43.7344 12.1172C43.526 12.4245 43.3698 12.8099 43.2656 13.2734C43.1615 13.7318 43.1094 14.263 43.1094 14.8672V15.75C43.1094 16.3281 43.1562 16.8464 43.25 17.3047C43.3438 17.763 43.4896 18.151 43.6875 18.4688C43.8854 18.7865 44.1406 19.0286 44.4531 19.1953C44.7656 19.362 45.138 19.4453 45.5703 19.4453C46.0964 19.4453 46.5234 19.362 46.8516 19.1953C47.1849 19.0286 47.4375 18.7839 47.6094 18.4609C47.7865 18.138 47.8984 17.737 47.9453 17.2578ZM57.2578 19.2031V15.3047C57.2578 15.0182 57.2083 14.7708 57.1094 14.5625C57.0104 14.3542 56.8594 14.1927 56.6562 14.0781C56.4531 13.9635 56.1953 13.9062 55.8828 13.9062C55.6068 13.9062 55.3646 13.9531 55.1562 14.0469C54.9531 14.1406 54.7969 14.2734 54.6875 14.4453C54.5781 14.612 54.5234 14.8047 54.5234 15.0234H52.4531C52.4531 14.6745 52.5365 14.3438 52.7031 14.0312C52.8698 13.7135 53.1068 13.4323 53.4141 13.1875C53.7266 12.9375 54.099 12.7422 54.5312 12.6016C54.9688 12.4609 55.4583 12.3906 56 12.3906C56.6406 12.3906 57.2109 12.5 57.7109 12.7188C58.2161 12.9323 58.612 13.2552 58.8984 13.6875C59.1901 14.1198 59.3359 14.6641 59.3359 15.3203V19.0078C59.3359 19.4297 59.362 19.7917 59.4141 20.0938C59.4714 20.3906 59.5547 20.6484 59.6641 20.8672V21H57.5625C57.4635 20.7865 57.388 20.5156 57.3359 20.1875C57.2839 19.8542 57.2578 19.526 57.2578 19.2031ZM57.5469 15.8516L57.5625 17.0781H56.2578C55.9349 17.0781 55.651 17.112 55.4062 17.1797C55.1615 17.2422 54.9609 17.3359 54.8047 17.4609C54.6484 17.5807 54.5312 17.7266 54.4531 17.8984C54.375 18.0651 54.3359 18.2552 54.3359 18.4688C54.3359 18.6771 54.3828 18.8646 54.4766 19.0312C54.5755 19.1979 54.7161 19.3307 54.8984 19.4297C55.0859 19.5234 55.3047 19.5703 55.5547 19.5703C55.9193 19.5703 56.237 19.4974 56.5078 19.3516C56.7786 19.2005 56.9896 19.0182 57.1406 18.8047C57.2917 18.5911 57.3724 18.388 57.3828 18.1953L57.9766 19.0859C57.9036 19.2995 57.7943 19.526 57.6484 19.7656C57.5026 20.0052 57.3151 20.2292 57.0859 20.4375C56.8568 20.6458 56.5807 20.8177 56.2578 20.9531C55.9349 21.0885 55.5599 21.1562 55.1328 21.1562C54.5859 21.1562 54.0964 21.0469 53.6641 20.8281C53.2318 20.6094 52.8906 20.3099 52.6406 19.9297C52.3906 19.5495 52.2656 19.1172 52.2656 18.6328C52.2656 18.1849 52.349 17.7891 52.5156 17.4453C52.6823 17.1016 52.9297 16.8125 53.2578 16.5781C53.5859 16.3385 53.9922 16.1589 54.4766 16.0391C54.9661 15.9141 55.526 15.8516 56.1562 15.8516H57.5469ZM64.2578 14.1719V24.25H62.1875V12.5469H64.1016L64.2578 14.1719ZM69.6875 16.6875V16.8516C69.6875 17.4661 69.6146 18.0365 69.4688 18.5625C69.3281 19.0833 69.1198 19.5391 68.8438 19.9297C68.5677 20.3151 68.224 20.6172 67.8125 20.8359C67.4062 21.0495 66.9375 21.1562 66.4062 21.1562C65.8854 21.1562 65.4323 21.0573 65.0469 20.8594C64.6615 20.6562 64.3359 20.3698 64.0703 20C63.8047 19.6302 63.5911 19.2005 63.4297 18.7109C63.2734 18.2161 63.1562 17.6771 63.0781 17.0938V16.5703C63.1562 15.9505 63.2734 15.388 63.4297 14.8828C63.5911 14.3724 63.8047 13.9323 64.0703 13.5625C64.3359 13.1875 64.6589 12.8984 65.0391 12.6953C65.4245 12.4922 65.875 12.3906 66.3906 12.3906C66.9271 12.3906 67.3984 12.4922 67.8047 12.6953C68.2161 12.8984 68.5625 13.1901 68.8438 13.5703C69.125 13.9505 69.3359 14.4036 69.4766 14.9297C69.6172 15.4557 69.6875 16.0417 69.6875 16.6875ZM67.6172 16.8516V16.6875C67.6172 16.3125 67.5833 15.9661 67.5156 15.6484C67.4479 15.3255 67.3438 15.0443 67.2031 14.8047C67.0625 14.5599 66.8802 14.3698 66.6562 14.2344C66.4323 14.099 66.1615 14.0312 65.8438 14.0312C65.526 14.0312 65.2526 14.0833 65.0234 14.1875C64.7943 14.2917 64.6068 14.4401 64.4609 14.6328C64.3151 14.8255 64.2005 15.0547 64.1172 15.3203C64.0391 15.5807 63.987 15.8698 63.9609 16.1875V17.4844C64.0078 17.8698 64.099 18.2161 64.2344 18.5234C64.3698 18.8307 64.5677 19.0755 64.8281 19.2578C65.0938 19.4401 65.4375 19.5312 65.8594 19.5312C66.1771 19.5312 66.4479 19.4609 66.6719 19.3203C66.8958 19.1797 67.0781 18.987 67.2188 18.7422C67.3594 18.4922 67.4609 18.2057 67.5234 17.8828C67.5859 17.5599 67.6172 17.2161 67.6172 16.8516ZM76.1953 12.5469V14.0312H71.3516V12.5469H76.1953ZM72.6484 10.4688H74.7188V18.5625C74.7188 18.8125 74.7526 19.0052 74.8203 19.1406C74.888 19.276 74.9896 19.3672 75.125 19.4141C75.2604 19.4609 75.4219 19.4844 75.6094 19.4844C75.7448 19.4844 75.8698 19.4766 75.9844 19.4609C76.099 19.4453 76.1953 19.4297 76.2734 19.4141L76.2812 20.9609C76.1094 21.0182 75.9141 21.0651 75.6953 21.1016C75.4818 21.138 75.2396 21.1562 74.9688 21.1562C74.5052 21.1562 74.099 21.0781 73.75 20.9219C73.401 20.7604 73.1302 20.5026 72.9375 20.1484C72.7448 19.7891 72.6484 19.3151 72.6484 18.7266V10.4688ZM80.7578 12.5469V21H78.6875V12.5469H80.7578ZM78.5469 10.3359C78.5469 10.0286 78.651 9.77344 78.8594 9.57031C79.0729 9.36719 79.3594 9.26562 79.7188 9.26562C80.0781 9.26562 80.362 9.36719 80.5703 9.57031C80.7839 9.77344 80.8906 10.0286 80.8906 10.3359C80.8906 10.638 80.7839 10.8906 80.5703 11.0938C80.362 11.2969 80.0781 11.3984 79.7188 11.3984C79.3594 11.3984 79.0729 11.2969 78.8594 11.0938C78.651 10.8906 78.5469 10.638 78.5469 10.3359ZM83.3594 16.8594V16.6953C83.3594 16.0755 83.4479 15.5052 83.625 14.9844C83.8021 14.4583 84.0599 14.0026 84.3984 13.6172C84.737 13.2318 85.151 12.9323 85.6406 12.7188C86.1302 12.5 86.6875 12.3906 87.3125 12.3906C87.9479 12.3906 88.5104 12.5 89 12.7188C89.4948 12.9323 89.9115 13.2318 90.25 13.6172C90.5885 14.0026 90.8464 14.4583 91.0234 14.9844C91.2005 15.5052 91.2891 16.0755 91.2891 16.6953V16.8594C91.2891 17.474 91.2005 18.0443 91.0234 18.5703C90.8464 19.0911 90.5885 19.5469 90.25 19.9375C89.9115 20.3229 89.4974 20.6224 89.0078 20.8359C88.5182 21.0495 87.9583 21.1562 87.3281 21.1562C86.7031 21.1562 86.1432 21.0495 85.6484 20.8359C85.1536 20.6224 84.737 20.3229 84.3984 19.9375C84.0599 19.5469 83.8021 19.0911 83.625 18.5703C83.4479 18.0443 83.3594 17.474 83.3594 16.8594ZM85.4219 16.6953V16.8594C85.4219 17.2292 85.4583 17.5755 85.5312 17.8984C85.6042 18.2214 85.7161 18.5052 85.8672 18.75C86.0182 18.9948 86.2135 19.1875 86.4531 19.3281C86.6979 19.4635 86.9896 19.5312 87.3281 19.5312C87.6615 19.5312 87.9479 19.4635 88.1875 19.3281C88.4271 19.1875 88.6224 18.9948 88.7734 18.75C88.9297 18.5052 89.0443 18.2214 89.1172 17.8984C89.1901 17.5755 89.2266 17.2292 89.2266 16.8594V16.6953C89.2266 16.3307 89.1901 15.9896 89.1172 15.6719C89.0443 15.349 88.9297 15.0651 88.7734 14.8203C88.6224 14.5703 88.4245 14.375 88.1797 14.2344C87.9401 14.0885 87.651 14.0156 87.3125 14.0156C86.9792 14.0156 86.6927 14.0885 86.4531 14.2344C86.2135 14.375 86.0182 14.5703 85.8672 14.8203C85.7161 15.0651 85.6042 15.349 85.5312 15.6719C85.4583 15.9896 85.4219 16.3307 85.4219 16.6953ZM95.8125 14.3516V21H93.75V12.5469H95.6875L95.8125 14.3516ZM95.4844 16.4688H94.875C94.8802 15.8542 94.9635 15.2969 95.125 14.7969C95.2865 14.2969 95.513 13.8672 95.8047 13.5078C96.1016 13.1484 96.4531 12.8724 96.8594 12.6797C97.2656 12.487 97.7188 12.3906 98.2188 12.3906C98.625 12.3906 98.9922 12.4479 99.3203 12.5625C99.6484 12.6771 99.9297 12.8594 100.164 13.1094C100.404 13.3594 100.586 13.6875 100.711 14.0938C100.841 14.4948 100.906 14.9896 100.906 15.5781V21H98.8281V15.5625C98.8281 15.1771 98.7708 14.8724 98.6562 14.6484C98.5469 14.4245 98.3854 14.2656 98.1719 14.1719C97.9635 14.0781 97.7057 14.0312 97.3984 14.0312C97.0807 14.0312 96.8021 14.0964 96.5625 14.2266C96.3281 14.3516 96.1302 14.526 95.9688 14.75C95.8125 14.974 95.6927 15.2318 95.6094 15.5234C95.526 15.8151 95.4844 16.1302 95.4844 16.4688Z" fill="#1A1A1A"/>
<defs>
<clipPath id="clip0_79_8515">
<rect width="16" height="16" fill="white" transform="translate(16 8)"/>
</clipPath>
</defs>
</svg>
