<svg width="145" height="39" viewBox="0 0 145 39" fill="none" xmlns="http://www.w3.org/2000/svg">
<path d="M76.7878 0.43338L57.7385 36.9076H69.0352L76.7878 21.3285L80.6569 28.7858H75.0896L71.9886 35.0617H83.9497L84.9096 36.9076H95.5418L76.7878 0.43338Z" fill="#414042"/>
<path d="M64.6011 19.5252L56.4888 35.0613H49.9858L53.0874 28.7859H58.6538L54.7847 21.3289L47.0327 36.908H35.7358L54.7847 0.43338L64.6011 19.5252Z" fill="#FF4D00"/>
<path d="M111.933 24.7987L111.933 0.285713L120.93 0.285713L133.247 19.5249H131.794V0.285713H144.568V36.9076H133.662L121.345 16.7131H122.798L122.798 24.7987H111.933Z" fill="#414042"/>
<path d="M97.6567 36.9076L122.86 36.9076V27.0074L103.744 27.0074V0.43338H92.8837V26.3061L97.6567 36.9076Z" fill="#414042"/>
<path d="M36.2409 13.2581C36.2244 13.2506 36.2144 13.2471 36.2079 13.2461C36.0932 13.1975 35.9751 13.163 35.8519 13.1474C35.8539 13.1595 35.8604 13.1655 35.872 13.1655C35.6487 13.2015 35.5045 13.3887 35.3083 13.4819C35.0855 13.588 34.8377 13.5134 34.6029 13.5439C34.3421 13.5775 34.0858 13.7191 33.8294 13.7852C33.5651 13.8533 33.3418 13.9845 33.0875 14.0746C32.9078 14.1382 32.6064 14.1402 32.4953 13.9489C32.4633 13.8939 32.5113 13.8278 32.5053 13.7682C32.4948 13.6616 32.4447 13.5424 32.3927 13.4493C32.2555 13.2065 31.9772 13.0563 31.7779 12.8686C31.5777 12.6794 31.3869 12.4791 31.1587 12.3224C30.9139 12.1542 30.6926 12.0366 30.5189 11.7853C30.3812 11.586 30.2731 11.3668 30.1179 11.1795C29.9337 10.9568 29.6578 10.8426 29.4756 10.6228C29.3319 10.4496 29.3134 10.2239 29.1952 10.0391C29.0781 9.8549 28.8638 9.79032 28.7187 9.63864C28.6311 9.54702 28.6526 9.37581 28.6431 9.26067C28.5855 8.57884 28.0589 8.21439 27.7029 7.69124C27.5788 7.50852 27.6318 7.31628 27.5973 7.11103C27.5582 6.88025 27.4025 6.72656 27.2248 6.58789C27.0191 6.42669 26.8258 6.28702 26.6842 6.06224C26.5205 5.80293 26.3963 5.52108 26.2717 5.24224C26.4959 5.07854 26.8128 5.07403 26.8348 4.7291C26.8544 4.42473 26.7197 4.07831 26.6001 3.80347C26.3878 3.31587 26.0053 3.2553 25.5292 3.15167C25.1603 3.07107 24.9245 2.92639 24.5576 3.10962C24.2402 3.26781 23.9889 3.38095 23.6259 3.33289C23.2725 3.28583 22.9356 3.16118 22.5926 3.06907C22.443 3.02852 22.3003 3.00098 22.1641 2.92289C22.039 2.8508 21.9153 2.75868 21.7686 2.73666C21.6069 2.59498 21.2255 2.6861 20.9857 2.66207C20.9822 2.64054 20.9476 2.52089 20.9466 2.50087C20.9346 2.50738 20.9216 2.50938 20.9071 2.50587C20.9081 2.42578 20.8755 2.35519 20.864 2.29562C20.4845 2.14193 19.8923 2.25156 19.6916 2.64054C19.5794 2.85781 19.7101 3.11162 19.597 3.31837C19.4338 3.61574 19.0848 3.5001 18.835 3.41699C18.6698 3.23076 18.2258 3.15417 18.0355 3.27832C17.988 3.28183 17.8783 3.25379 17.8073 3.20874C17.8133 3.16569 17.8148 3.04504 17.7937 3.00799C17.7927 3.00649 17.7101 2.89385 17.7081 2.94441C17.7091 2.91438 17.7106 2.88434 17.7121 2.8543C17.7126 2.84379 17.5985 2.79172 17.585 2.78422C17.5479 2.76369 17.5109 2.74667 17.4723 2.72965C17.3892 2.6926 17.3086 2.64955 17.232 2.60099C17.1439 2.58297 17.0663 2.54442 16.9832 2.51338C16.8926 2.47984 16.799 2.45882 16.7054 2.43629C16.5993 2.41076 16.4926 2.38523 16.3865 2.35969C16.2158 2.30913 16.0451 2.24906 15.8724 2.20751C15.7402 2.17597 15.6131 2.17997 15.4859 2.12391C15.4679 2.10588 15.4343 2.07534 15.3843 2.0403C15.2912 1.97472 15.2801 1.8726 15.2962 1.76847C15.2962 1.70339 15.3177 1.6318 15.3462 1.57323C15.3688 1.52667 15.4003 1.49063 15.3978 1.43556C15.3933 1.33444 15.3057 1.25133 15.2496 1.17474C15.19 1.09464 15.154 0.976495 15.1205 0.883381C15.19 0.798777 15.2146 0.700156 15.2091 0.574501C15.2091 0.585014 15.2201 0.593525 15.2201 0.591522C15.2021 0.534953 15.2011 0.537456 15.149 0.502913C15.1295 0.383267 14.8782 0.163997 14.6829 0.190529C14.6143 0.124949 14.6564 0.146475 14.5457 0.134961C14.4666 0.0628726 14.4411 0.0703821 14.3305 0.0388433C14.2639 -0.00170647 14.1788 -0.0167246 14.0617 0.0243258C13.958 -0.0222313 13.8174 0.0558643 13.8274 0.0648753C13.7127 0.217563 13.5195 0.340714 13.3247 0.262117C13.2582 0.258112 13.2161 0.260616 13.1505 0.265121C13.0774 0.153484 12.9363 0.117941 12.7961 0.153484C12.5913 -0.0077138 12.4877 0.244095 12.296 0.27213C12.0266 0.311678 11.7753 0.12545 11.502 0.191531C11.4935 0.17451 11.4935 0.156989 11.502 0.138967C11.1471 0.118942 10.4242 0.432827 10.1589 0.657604C9.98965 0.667616 9.72282 0.710669 9.52458 0.806287C9.52257 0.788265 9.51506 0.773246 9.50255 0.759729C9.39141 0.802782 9.29429 0.797776 9.18966 0.860853C9.07603 0.834821 8.94987 0.863356 8.84774 0.934443C8.79618 0.936446 8.68154 0.938449 8.61696 0.910915C8.53836 0.916922 8.3271 0.896396 8.28705 0.887886C8.30157 0.86636 8.20796 0.84984 8.17241 0.84984C8.16741 0.762733 8.17492 0.786262 8.10183 0.686639C8.10633 0.692146 8.11084 0.697653 8.11534 0.703159C8.13437 0.421313 7.79445 0.348724 7.58119 0.429824C7.39746 0.499409 7.35741 0.749216 7.27081 0.902905C7.02901 1.33243 6.62801 1.44858 6.209 1.64432C5.76045 1.85407 5.37447 2.19599 5.24582 2.6881C5.18724 2.91137 5.20977 3.13815 5.09864 3.34691C4.97599 3.57619 4.78825 3.77043 4.59602 3.94264C4.39677 4.12086 4.19603 4.27755 3.93971 4.36366C3.67238 4.45327 3.4451 4.54438 3.2779 4.78267C3.12821 4.99593 2.97352 5.17315 2.76026 5.32534C2.56452 5.46501 2.35777 5.59116 2.20258 5.77889C2.04488 5.96963 1.94476 6.20642 1.79908 6.40767C1.64289 6.62293 1.47368 6.82768 1.31048 7.03744C1.02062 7.4114 0.674699 7.85144 0.654174 8.34555C1.0807 8.44267 0.804358 8.9618 0.78183 9.24165C0.76531 9.4489 0.800353 9.65415 0.798351 9.86091C0.796348 10.0571 0.744785 10.2509 0.680706 10.4351C0.55355 10.8021 0.384342 11.2021 0.166074 11.525C0.0549369 11.6892 -0.0396795 11.8408 0.01689 12.0461C0.0749614 12.2559 0.150554 12.4401 0.182093 12.6578C0.241166 13.0618 0.37433 13.4413 0.646665 13.7517C0.938023 14.0841 1.27694 14.3699 1.54727 14.7219C1.82611 15.0843 1.91773 15.5048 2.11747 15.9058C2.2211 16.1141 2.36077 16.3003 2.5465 16.4415C2.7082 16.5646 2.89192 16.6593 3.02909 16.8125C3.23485 17.0417 3.34899 17.3351 3.57677 17.5479C3.76199 17.7201 3.98376 17.8522 4.23808 17.8813C4.50691 17.9118 4.77574 17.8372 5.02805 17.7536C5.30539 17.6615 5.59525 17.6059 5.8856 17.5764C6.2095 17.5443 6.53941 17.5443 6.8613 17.5954C7.13864 17.6395 7.41148 17.7231 7.69382 17.7361C8.04375 17.7516 8.30608 17.5879 8.62948 17.4918C8.90882 17.4092 9.20068 17.3912 9.48803 17.3516C9.82494 17.3051 10.0497 17.1949 10.3416 17.0327C10.5493 16.9171 10.7846 16.889 10.9709 17.0578C11.1551 17.2245 11.3273 17.4112 11.496 17.5929C11.6427 17.7511 11.8089 17.9569 12.0191 18.0314C12.3315 18.1421 12.6714 18.0284 12.9878 18.1191C13.2136 18.1836 13.4194 18.3523 13.5851 18.513C13.7698 18.6923 13.8589 18.859 13.8384 19.1193C13.8189 19.3696 13.7453 19.6309 13.7968 19.8817C13.6717 20.2036 13.4564 20.5425 13.514 20.902C13.5756 21.2885 13.928 21.6003 14.1823 21.8727C14.734 22.4644 15.2041 23.1377 15.593 23.8441C15.6907 24.0213 15.8028 24.193 15.8704 24.3848C15.939 24.578 15.8979 24.7832 15.8929 24.9825C15.8844 25.3139 16.0671 25.5707 16.2083 25.8546C16.5652 26.5699 15.8819 27.0781 15.8223 27.7664H15.7853C15.6281 28.1178 15.4884 28.4803 15.4058 28.8567C15.2746 29.452 15.3207 30.0572 15.579 30.6124C15.8473 31.1886 16.3359 31.5941 16.6563 32.1333C16.8265 32.4191 16.8686 32.7275 16.8966 33.0529C16.9242 33.3733 17.0043 33.6436 17.0919 33.9495C17.1785 34.2514 17.1529 34.5683 17.2185 34.8731C17.2886 35.1995 17.4939 35.4709 17.6746 35.7447C17.8793 36.0551 18.0916 36.361 18.3069 36.6643C18.431 36.8396 18.5987 36.9802 18.7164 37.1609C18.855 37.3737 18.7604 37.5354 18.6958 37.7517C18.6348 37.9574 18.7654 38.1402 18.8911 38.2908C19.1469 38.5972 19.5955 39.0127 20.027 38.9997C20.6733 38.9802 21.2224 38.6092 21.8863 38.6918C22.2152 38.7329 22.4695 38.6833 22.7503 38.5016C22.9831 38.3509 23.2104 38.2228 23.4697 38.1216C23.7425 38.015 24.0224 37.9184 24.2722 37.7622C24.523 37.605 24.7102 37.3782 24.894 37.1504C25.1077 36.8856 25.308 36.6103 25.5222 36.3454C25.704 36.1207 25.9337 35.9174 26.0769 35.6646C26.2376 35.3808 26.167 35.0834 26.2141 34.777C26.2521 34.5297 26.3703 34.2524 26.538 34.0661C26.7327 33.8504 27.0461 33.8314 27.2644 33.6506C27.4536 33.4944 27.5542 33.2501 27.5998 33.0144C27.6994 32.4997 27.5337 31.9936 27.5873 31.482C27.6328 31.0454 27.9757 30.7901 28.2891 30.5263C28.7777 30.1153 29.2688 29.6938 29.829 29.3824C30.2526 29.1466 30.7361 28.9313 30.9769 28.4833C31.2868 27.9066 31.0896 27.2037 31.1602 26.5825C31.1947 26.2791 31.3514 25.9296 31.1456 25.6533C31.0165 25.4796 30.8007 25.401 30.6731 25.2278C30.4643 24.9439 30.642 24.6175 30.607 24.3047C30.5784 24.0493 30.3852 23.8706 30.2946 23.6408C30.1269 23.2153 30.4968 22.6942 30.7296 22.3643C31.05 21.9097 31.4801 21.5573 31.829 21.1278C32.0212 20.891 32.1324 20.6106 32.3116 20.3663C32.4748 20.1435 32.6991 19.9848 32.8878 19.7861C33.3293 19.322 33.6788 18.8229 34.1949 18.4294H34.1213C34.5293 18.3949 34.6204 17.8247 34.7215 17.5183C34.7936 17.3015 34.9098 17.1439 35.058 16.9706C35.2722 16.7203 35.3388 16.4785 35.3999 16.1606C35.511 15.5824 36.0377 15.187 36.1433 14.6127C36.2054 14.2733 36.0612 13.6961 36.4517 13.5124C36.4186 13.3907 36.324 13.3557 36.2409 13.2581Z" fill="#FF4D00"/>
<path d="M35.8825 28.221C35.8164 28.1249 35.8545 28.0017 35.8615 27.8961C35.886 27.5352 35.7188 27.017 35.4224 26.7962L35.3108 26.9079C34.7066 27.1392 35.1381 27.423 34.8272 27.7299C34.8072 27.6994 34.7691 27.6563 34.7456 27.6203C34.5083 27.7104 34.4062 27.9382 34.279 28.1389C34.1093 28.4072 33.857 28.6275 33.5792 28.7787C33.2032 28.9829 32.649 28.9789 32.4273 29.4025C32.3662 29.5186 32.4007 29.5631 32.4067 29.6828C32.4122 29.8009 32.2696 29.8034 32.23 29.8921C32.0878 30.2074 32.1084 30.4417 32.2105 30.7621C32.3852 31.3103 31.9612 31.6162 31.7059 32.0387C31.5717 32.2605 31.5622 32.4297 31.6653 32.6615C31.777 32.9113 31.6148 33.2332 31.5907 33.4925C31.5647 33.7688 31.6628 34.0326 31.9121 34.1778C32.1439 34.313 32.3952 34.2024 32.621 34.1137C32.8503 34.0236 33.049 33.9931 33.2933 34.0191C33.5672 34.0482 33.7043 33.892 33.7984 33.6452C33.9051 33.3668 33.9792 33.114 34.1579 32.8697C34.3511 32.6049 34.5454 32.3561 34.638 32.0357C34.7061 31.8009 34.7496 31.5631 34.8477 31.3373C34.9524 31.097 35.077 30.8658 35.1791 30.6245C35.3899 30.1263 35.4139 29.5962 35.4775 29.0665C35.5716 28.9169 35.7338 28.8748 35.867 28.9955C36.0172 28.8403 36.1173 28.6555 36.0532 28.4358C36.0277 28.3411 35.9351 28.2971 35.8825 28.221Z" fill="#FF4D00"/>
</svg>
