<svg width="118" height="40" viewBox="0 0 118 40" fill="none" xmlns="http://www.w3.org/2000/svg">
<path d="M89.4136 37.3562H77.192L93.2795 0.898438H101.414L117.378 37.3562H105.157L97.2854 17.4595L89.4136 37.3562Z" fill="white"/>
<path d="M40.0529 37.3718H46.5131H50.8894V10.4973H55.3081L59.476 0.914062H27.7576L31.9255 10.4973H40.0529V37.3718Z" fill="white"/>
<path d="M57.7939 37.3718H75.2241L79.6004 27.4762H68.6304V10.4973V0.914062H61.8631L57.7939 10.4973V37.3718Z" fill="white"/>
<path d="M36.2409 13.7581C36.2244 13.7506 36.2144 13.7471 36.2079 13.7461C36.0932 13.6975 35.9751 13.663 35.852 13.6474C35.854 13.6595 35.8605 13.6655 35.872 13.6655C35.6487 13.7015 35.5045 13.8887 35.3083 13.9819C35.0855 14.088 34.8377 14.0134 34.6029 14.0439C34.3421 14.0775 34.0858 14.2191 33.8295 14.2852C33.5651 14.3533 33.3419 14.4845 33.0876 14.5746C32.9078 14.6382 32.6065 14.6402 32.4953 14.4489C32.4633 14.3939 32.5113 14.3278 32.5053 14.2682C32.4948 14.1616 32.4448 14.0424 32.3927 13.9493C32.2555 13.7065 31.9772 13.5563 31.7779 13.3686C31.5777 13.1794 31.387 12.9791 31.1587 12.8224C30.9139 12.6542 30.6926 12.5366 30.5189 12.2853C30.3812 12.086 30.2731 11.8668 30.1179 11.6795C29.9337 11.4568 29.6578 11.3426 29.4756 11.1228C29.3319 10.9496 29.3134 10.7239 29.1953 10.5391C29.0781 10.3549 28.8639 10.2903 28.7187 10.1386C28.6311 10.047 28.6526 9.87581 28.6431 9.76067C28.5855 9.07883 28.0589 8.71438 27.7029 8.19124C27.5788 8.00852 27.6319 7.81628 27.5973 7.61103C27.5583 7.38024 27.4026 7.22656 27.2249 7.08789C27.0191 6.92669 26.8259 6.78702 26.6842 6.56224C26.5205 6.30292 26.3963 6.02107 26.2717 5.74223C26.496 5.57853 26.8128 5.57402 26.8349 5.2291C26.8544 4.92473 26.7197 4.5783 26.6001 4.30346C26.3878 3.81587 26.0054 3.75529 25.5293 3.65166C25.1603 3.57106 24.9245 3.42639 24.5576 3.60961C24.2402 3.76781 23.9889 3.88095 23.6259 3.83289C23.2725 3.78583 22.9356 3.66118 22.5927 3.56906C22.443 3.52851 22.3003 3.50098 22.1641 3.42288C22.039 3.35079 21.9153 3.25868 21.7686 3.23665C21.6069 3.09498 21.2255 3.18609 20.9857 3.16206C20.9822 3.14054 20.9476 3.02089 20.9466 3.00086C20.9346 3.00737 20.9216 3.00937 20.9071 3.00587C20.9081 2.92577 20.8756 2.85519 20.864 2.79561C20.4846 2.64192 19.8923 2.75156 19.6916 3.14054C19.5795 3.3578 19.7101 3.61161 19.597 3.81837C19.4338 4.11573 19.0849 4.00009 18.835 3.91699C18.6698 3.73076 18.2258 3.65417 18.0356 3.77832C17.988 3.78182 17.8784 3.75379 17.8073 3.70873C17.8133 3.66568 17.8148 3.54503 17.7938 3.50799C17.7928 3.50649 17.7102 3.39385 17.7082 3.44441C17.7092 3.41437 17.7107 3.38434 17.7122 3.3543C17.7127 3.34379 17.5985 3.29172 17.585 3.28421C17.548 3.26369 17.5109 3.24667 17.4724 3.22965C17.3893 3.1926 17.3087 3.14955 17.2321 3.10099C17.144 3.08297 17.0664 3.04442 16.9833 3.01338C16.8927 2.97984 16.799 2.95881 16.7054 2.93628C16.5993 2.91075 16.4927 2.88522 16.3865 2.85969C16.2158 2.80913 16.0451 2.74906 15.8724 2.7075C15.7402 2.67597 15.6131 2.67997 15.4859 2.6239C15.4679 2.60588 15.4344 2.57534 15.3843 2.5403C15.2912 2.47472 15.2802 2.37259 15.2962 2.26846C15.2962 2.20338 15.3177 2.1318 15.3463 2.07322C15.3688 2.02667 15.4003 1.99062 15.3978 1.93556C15.3933 1.83443 15.3057 1.75133 15.2496 1.67474C15.1901 1.59464 15.154 1.47649 15.1205 1.38338C15.1901 1.29877 15.2146 1.20015 15.2091 1.0745C15.2091 1.08501 15.2201 1.09352 15.2201 1.09152C15.2021 1.03495 15.2011 1.03745 15.149 1.00291C15.1295 0.883263 14.8782 0.663993 14.6829 0.690526C14.6144 0.624945 14.6564 0.646471 14.5458 0.634957C14.4667 0.562869 14.4411 0.570378 14.3305 0.53884C14.2639 0.49829 14.1788 0.483272 14.0617 0.524322C13.9581 0.477765 13.8174 0.55586 13.8274 0.564872C13.7128 0.717559 13.5195 0.84071 13.3248 0.762113C13.2582 0.758108 13.2161 0.760612 13.1506 0.765117C13.0775 0.65348 12.9363 0.617937 12.7961 0.65348C12.5914 0.492282 12.4877 0.744091 12.296 0.772126C12.0267 0.811675 11.7754 0.625446 11.502 0.691527C11.4935 0.674506 11.4935 0.656985 11.502 0.638963C11.1471 0.618938 10.4242 0.932824 10.1589 1.1576C9.98968 1.16761 9.72285 1.21067 9.52461 1.30628C9.52261 1.28826 9.5151 1.27324 9.50258 1.25973C9.39145 1.30278 9.29433 1.29777 9.1897 1.36085C9.07606 1.33482 8.9499 1.36335 8.84778 1.43444C8.79621 1.43644 8.68157 1.43844 8.61699 1.41091C8.5384 1.41692 8.32714 1.39639 8.28709 1.38788C8.30161 1.36636 8.20799 1.34984 8.17245 1.34984C8.16744 1.26273 8.17495 1.28626 8.10186 1.18664C8.10637 1.19214 8.11087 1.19765 8.11538 1.20316C8.1344 0.921309 7.79448 0.84872 7.58122 0.92982C7.3975 0.999405 7.35745 1.24921 7.27084 1.4029C7.02904 1.83243 6.62805 1.94857 6.20903 2.14431C5.76048 2.35407 5.37451 2.69599 5.24585 3.18809C5.18728 3.41137 5.20981 3.63815 5.09867 3.8469C4.97602 4.07618 4.78829 4.27042 4.59605 4.44264C4.39681 4.62085 4.19606 4.77755 3.93975 4.86365C3.67242 4.95326 3.44514 5.04438 3.27793 5.28267C3.12825 5.49593 2.97356 5.67315 2.7603 5.82533C2.56456 5.96501 2.3578 6.09116 2.20261 6.27889C2.04492 6.46962 1.9448 6.70642 1.79912 6.90766C1.64293 7.12293 1.47372 7.32768 1.31052 7.53744C1.02066 7.9114 0.674737 8.35144 0.654211 8.84554C1.08074 8.94266 0.804395 9.4618 0.781868 9.74164C0.765347 9.9489 0.800391 10.1542 0.798389 10.3609C0.796386 10.5571 0.744822 10.7509 0.680744 10.9351C0.553588 11.3021 0.38438 11.7021 0.166112 12.025C0.0549751 12.1892 -0.0396414 12.3408 0.0169281 12.5461C0.0749995 12.7558 0.150592 12.9401 0.182131 13.1578C0.241204 13.5618 0.374368 13.9413 0.646702 14.2517C0.93806 14.5841 1.27698 14.8699 1.54731 15.2219C1.82615 15.5843 1.91776 16.0048 2.11751 16.4058C2.22114 16.6141 2.36081 16.8003 2.54654 16.9415C2.70824 17.0646 2.89196 17.1593 3.02913 17.3124C3.23488 17.5417 3.34902 17.8351 3.5768 18.0478C3.76203 18.2201 3.9838 18.3522 4.23811 18.3813C4.50694 18.4118 4.77578 18.3372 5.02809 18.2536C5.30543 18.1615 5.59528 18.1059 5.88564 18.0764C6.20954 18.0443 6.53944 18.0443 6.86134 18.0954C7.13868 18.1395 7.41151 18.2231 7.69386 18.2361C8.04379 18.2516 8.30611 18.0879 8.62951 17.9918C8.90885 17.9092 9.20071 17.8912 9.48806 17.8516C9.82498 17.805 10.0498 17.6949 10.3416 17.5327C10.5494 17.4171 10.7847 17.389 10.9709 17.5577C11.1551 17.7245 11.3273 17.9112 11.496 18.0929C11.6427 18.2511 11.8089 18.4569 12.0192 18.5314C12.3316 18.6421 12.6715 18.5284 12.9879 18.6191C13.2136 18.6836 13.4194 18.8523 13.5851 19.013C13.7698 19.1923 13.8589 19.359 13.8384 19.6193C13.8189 19.8696 13.7453 20.1309 13.7969 20.3817C13.6717 20.7036 13.4564 21.0425 13.514 21.402C13.5756 21.7884 13.928 22.1003 14.1823 22.3727C14.734 22.9644 15.2041 23.6377 15.5931 24.3441C15.6907 24.5213 15.8028 24.693 15.8704 24.8848C15.939 25.078 15.8979 25.2832 15.8929 25.4825C15.8844 25.8139 16.0671 26.0707 16.2083 26.3546C16.5653 27.0699 15.8819 27.5781 15.8223 28.2664H15.7853C15.6281 28.6178 15.4884 28.9803 15.4058 29.3567C15.2747 29.952 15.3207 30.5572 15.579 31.1124C15.8474 31.6886 16.336 32.0941 16.6564 32.6333C16.8266 32.9191 16.8686 33.2275 16.8967 33.5529C16.9242 33.8733 17.0043 34.1436 17.0919 34.4495C17.1785 34.7514 17.153 35.0683 17.2186 35.3731C17.2886 35.6995 17.4939 35.9709 17.6746 36.2447C17.8794 36.5551 18.0916 36.861 18.3069 37.1643C18.431 37.3396 18.5988 37.4802 18.7164 37.6609C18.8551 37.8737 18.7605 38.0354 18.6959 38.2517C18.6348 38.4574 18.7655 38.6401 18.8911 38.7908C19.1469 39.0972 19.5955 39.5127 20.027 39.4997C20.6733 39.4802 21.2225 39.1092 21.8863 39.1918C22.2152 39.2329 22.4695 39.1833 22.7504 39.0016C22.9831 38.8509 23.2104 38.7227 23.4697 38.6216C23.7426 38.515 24.0224 38.4184 24.2722 38.2622C24.523 38.105 24.7103 37.8782 24.894 37.6504C25.1078 37.3856 25.308 37.1103 25.5223 36.8454C25.704 36.6207 25.9338 36.4174 26.0769 36.1646C26.2376 35.8808 26.1671 35.5834 26.2141 35.277C26.2522 35.0297 26.3703 34.7524 26.538 34.5661C26.7327 34.3504 27.0461 34.3314 27.2644 34.1506C27.4536 33.9944 27.5543 33.7501 27.5998 33.5144C27.6994 32.9997 27.5337 32.4936 27.5873 31.982C27.6329 31.5454 27.9758 31.2901 28.2892 31.0263C28.7778 30.6153 29.2689 30.1938 29.8291 29.8824C30.2526 29.6466 30.7362 29.4313 30.977 28.9833C31.2868 28.4066 31.0896 27.7037 31.1602 27.0824C31.1947 26.7791 31.3514 26.4296 31.1457 26.1533C31.0165 25.9796 30.8007 25.901 30.6731 25.7278C30.4643 25.4439 30.6421 25.1175 30.607 24.8046C30.5785 24.5493 30.3852 24.3706 30.2946 24.1408C30.1269 23.7153 30.4969 23.1942 30.7297 22.8643C31.0501 22.4097 31.4801 22.0573 31.829 21.6277C32.0212 21.391 32.1324 21.1106 32.3116 20.8663C32.4748 20.6435 32.6991 20.4848 32.8878 20.2861C33.3294 19.822 33.6788 19.3229 34.1949 18.9294H34.1213C34.5293 18.8949 34.6204 18.3247 34.7216 18.0183C34.7936 17.8015 34.9098 17.6439 35.058 17.4706C35.2722 17.2203 35.3388 16.9785 35.3999 16.6606C35.511 16.0824 36.0377 15.6869 36.1433 15.1127C36.2054 14.7733 36.0612 14.1961 36.4517 14.0124C36.4186 13.8907 36.324 13.8557 36.2409 13.7581Z" fill="#FF4D00"/>
<path d="M35.8825 28.7211C35.8164 28.625 35.8545 28.5019 35.8615 28.3962C35.886 28.0353 35.7188 27.5172 35.4224 27.2964L35.3108 27.408C34.7065 27.6393 35.1381 27.9232 34.8272 28.23C34.8072 28.1995 34.7691 28.1564 34.7456 28.1204C34.5083 28.2105 34.4062 28.4383 34.279 28.639C34.1093 28.9074 33.857 29.1276 33.5792 29.2788C33.2032 29.4831 32.649 29.4791 32.4272 29.9026C32.3662 30.0187 32.4007 30.0633 32.4067 30.1829C32.4122 30.3011 32.2696 30.3036 32.23 30.3922C32.0878 30.7076 32.1084 30.9419 32.2105 31.2623C32.3852 31.8104 31.9612 32.1163 31.7059 32.5388C31.5717 32.7606 31.5622 32.9298 31.6653 33.1616C31.7769 33.4114 31.6147 33.7333 31.5907 33.9926C31.5647 34.269 31.6628 34.5328 31.9121 34.678C32.1439 34.8131 32.3952 34.7025 32.621 34.6139C32.8503 34.5238 33.049 34.4932 33.2933 34.5193C33.5671 34.5483 33.7043 34.3921 33.7984 34.1453C33.9051 33.867 33.9792 33.6142 34.1579 33.3699C34.3511 33.105 34.5453 32.8562 34.638 32.5358C34.706 32.301 34.7496 32.0632 34.8477 31.8375C34.9523 31.5972 35.077 31.3659 35.1791 31.1246C35.3899 30.6265 35.4139 30.0963 35.4775 29.5667C35.5716 29.417 35.7338 29.3749 35.867 29.4956C36.0172 29.3404 36.1173 29.1557 36.0532 28.9359C36.0277 28.8413 35.9351 28.7972 35.8825 28.7211Z" fill="#FF4D00"/>
</svg>
