<svg width="979" height="265" viewBox="0 0 979 265" fill="none" xmlns="http://www.w3.org/2000/svg">
<path d="M520 2.93481L391 249.935H467.5L520 144.435L546.201 194.935H508.5L487.5 237.435H568.5L575 249.935H647L520 2.93481Z" fill="white"/>
<path d="M437.477 132.224L382.528 237.435H338.5L359.5 194.935H397.201L371 144.435L318.5 249.935H242L371 2.93481L437.477 132.224Z" fill="#FF4D00"/>
<path d="M758 167.935L758 1.93481L818.925 1.93481L902.336 132.221H892.499V1.93481H979V249.935H905.147L821.736 113.179H831.574L831.574 167.935H758Z" fill="white"/>
<path d="M661.323 249.935L832 249.935V182.892L702.547 182.892V2.93481H629V178.143L661.323 249.935Z" fill="white"/>
<path d="M245.42 89.7825C245.308 89.7317 245.24 89.7079 245.196 89.7012C244.42 89.3723 243.62 89.1384 242.786 89.0333C242.8 89.1147 242.844 89.1554 242.922 89.1554C241.41 89.3995 240.433 90.6674 239.104 91.2979C237.596 92.0166 235.918 91.5115 234.328 91.7183C232.561 91.9454 230.826 92.9048 229.09 93.3523C227.3 93.8134 225.788 94.7016 224.066 95.3118C222.849 95.7424 220.808 95.7559 220.055 94.4609C219.838 94.088 220.164 93.6405 220.123 93.2371C220.052 92.515 219.713 91.7081 219.36 91.0776C218.431 89.4333 216.546 88.4163 215.197 87.145C213.841 85.8635 212.549 84.5075 211.004 83.4464C209.346 82.3073 207.847 81.5106 206.671 79.8088C205.739 78.4595 205.006 76.9747 203.956 75.7068C202.708 74.1982 200.84 73.4252 199.606 71.9369C198.633 70.764 198.508 69.235 197.708 67.9841C196.914 66.7365 195.463 66.2992 194.48 65.272C193.887 64.6516 194.033 63.4922 193.968 62.7124C193.578 58.0951 190.012 55.6271 187.602 52.0844C186.761 50.847 187.12 49.5452 186.886 48.1552C186.622 46.5924 185.568 45.5516 184.364 44.6126C182.971 43.521 181.662 42.5751 180.703 41.0529C179.594 39.2969 178.753 37.3882 177.909 35.4999C179.428 34.3914 181.574 34.3608 181.723 32.0251C181.855 29.9639 180.943 27.6179 180.133 25.7567C178.696 22.4547 176.106 22.0445 172.882 21.3428C170.383 20.797 168.786 19.8172 166.301 21.058C164.152 22.1293 162.45 22.8955 159.992 22.57C157.599 22.2513 155.317 21.4072 152.995 20.7834C151.982 20.5088 151.015 20.3224 150.093 19.7935C149.246 19.3053 148.408 18.6815 147.415 18.5324C146.32 17.573 143.737 18.19 142.113 18.0272C142.089 17.8815 141.855 17.0712 141.849 16.9356C141.767 16.9797 141.679 16.9933 141.581 16.9695C141.587 16.4271 141.367 15.9491 141.289 15.5457C138.719 14.5049 134.709 15.2474 133.35 17.8815C132.59 19.3528 133.475 21.0716 132.709 22.4717C131.604 24.4854 129.241 23.7023 127.549 23.1395C126.43 21.8784 123.423 21.3597 122.135 22.2005C121.813 22.2242 121.07 22.0344 120.589 21.7293C120.63 21.4377 120.64 20.6207 120.498 20.3698C120.491 20.3596 119.931 19.5969 119.918 19.9393C119.925 19.7359 119.935 19.5325 119.945 19.3291C119.948 19.2579 119.175 18.9053 119.084 18.8544C118.833 18.7154 118.582 18.6002 118.321 18.4849C117.758 18.234 117.213 17.9425 116.694 17.6137C116.097 17.4916 115.572 17.2306 115.009 17.0204C114.395 16.7932 113.761 16.6509 113.127 16.4983C112.409 16.3254 111.687 16.1525 110.968 15.9796C109.812 15.6372 108.656 15.2304 107.486 14.949C106.591 14.7354 105.73 14.7626 104.869 14.3829C104.747 14.2608 104.52 14.054 104.181 13.8167C103.55 13.3726 103.476 12.681 103.584 11.9759C103.584 11.5352 103.73 11.0504 103.923 10.6537C104.076 10.3385 104.289 10.0944 104.272 9.72146C104.242 9.03665 103.649 8.47389 103.269 7.9552C102.866 7.41278 102.621 6.61271 102.394 5.98215C102.866 5.40922 103.032 4.74137 102.994 3.89045C102.994 3.96164 103.069 4.01927 103.069 4.00571C102.947 3.62263 102.94 3.63958 102.588 3.40566C102.455 2.59542 100.753 1.11055 99.4314 1.29022C98.9669 0.846117 99.2517 0.991892 98.5024 0.913919C97.9668 0.425742 97.7939 0.476595 97.0447 0.263018C96.5938 -0.0115819 96.0175 -0.113283 95.2242 0.164707C94.5225 -0.150575 93.5698 0.378282 93.6376 0.439304C92.8613 1.47329 91.5527 2.30726 90.2339 1.77501C89.7831 1.74789 89.4983 1.76484 89.0542 1.79535C88.5592 1.03935 87.6032 0.798657 86.654 1.03936C85.2674 -0.052263 84.5657 1.65297 83.2673 1.84281C81.4434 2.11063 79.7415 0.84951 77.8905 1.29701C77.8329 1.18174 77.8329 1.06309 77.8905 0.941045C75.4869 0.80544 70.5916 2.93104 68.7948 4.45321C67.649 4.52101 65.842 4.81256 64.4995 5.46008C64.486 5.33803 64.4351 5.23633 64.3504 5.14479C63.5978 5.43634 62.9401 5.40244 62.2316 5.8296C61.462 5.65331 60.6077 5.84654 59.9161 6.32794C59.5669 6.3415 58.7906 6.35507 58.3533 6.16861C57.821 6.20929 56.3904 6.07029 56.1192 6.01266C56.2175 5.86688 55.5835 5.75502 55.3428 5.75502C55.3089 5.16513 55.3598 5.32447 54.8648 4.64984C54.8953 4.68713 54.9258 4.72442 54.9564 4.76171C55.0852 2.85307 52.7833 2.3615 51.3391 2.9107C50.0949 3.38193 49.8237 5.0736 49.2372 6.11437C47.5998 9.02309 44.8843 9.8096 42.0468 11.1351C39.0092 12.5556 36.3954 14.871 35.5242 18.2035C35.1275 19.7155 35.2801 21.2513 34.5275 22.6649C33.6969 24.2176 32.4256 25.533 31.1238 26.6992C29.7745 27.9061 28.4151 28.9672 26.6794 29.5503C24.869 30.1571 23.3299 30.7741 22.1976 32.3878C21.184 33.832 20.1364 35.0321 18.6922 36.0627C17.3667 37.0085 15.9666 37.8628 14.9156 39.1341C13.8478 40.4258 13.1697 42.0293 12.1832 43.3921C11.1255 44.8499 9.97963 46.2364 8.87445 47.6569C6.91157 50.1893 4.569 53.1692 4.43 56.5153C7.31839 57.173 5.44704 60.6885 5.29448 62.5836C5.18261 63.9871 5.41992 65.3771 5.40636 66.7772C5.3928 68.1061 5.04361 69.4181 4.60968 70.6656C3.74859 73.1506 2.60273 75.8593 1.12463 78.0459C0.372028 79.1579 -0.268706 80.1851 0.114378 81.5751C0.507631 82.9955 1.01954 84.2431 1.23312 85.7178C1.63315 88.4536 2.53493 91.0233 4.37915 93.1252C6.3522 95.3762 8.64731 97.312 10.478 99.6953C12.3663 102.15 12.9867 104.997 14.3393 107.713C15.0411 109.123 15.9869 110.384 17.2447 111.34C18.3397 112.174 19.5838 112.815 20.5127 113.852C21.9061 115.405 22.679 117.392 24.2215 118.832C25.4759 119.999 26.9777 120.894 28.6999 121.09C30.5204 121.297 32.3409 120.792 34.0495 120.226C35.9276 119.602 37.8905 119.226 39.8568 119.026C42.0502 118.809 44.2843 118.809 46.4641 119.155C48.3422 119.453 50.1898 120.019 52.1019 120.107C54.4716 120.212 56.248 119.104 58.438 118.453C60.3297 117.893 62.3061 117.771 64.2521 117.504C66.5336 117.188 68.0558 116.442 70.0322 115.344C71.4391 114.561 73.0325 114.371 74.2936 115.514C75.5412 116.642 76.7074 117.907 77.8498 119.138C78.8431 120.209 79.9687 121.602 81.3925 122.107C83.508 122.857 85.8098 122.087 87.9524 122.701C89.4813 123.138 90.8747 124.28 91.9968 125.369C93.2478 126.582 93.8512 127.711 93.7122 129.474C93.58 131.169 93.0816 132.939 93.4308 134.637C92.5833 136.817 91.1256 139.112 91.5154 141.546C91.9324 144.163 94.319 146.275 96.0412 148.12C99.7771 152.127 102.96 156.687 105.595 161.47C106.256 162.67 107.015 163.833 107.473 165.131C107.937 166.44 107.659 167.83 107.625 169.179C107.568 171.423 108.805 173.163 109.761 175.085C112.178 179.929 107.551 183.37 107.147 188.032H106.896C105.832 190.411 104.886 192.866 104.327 195.415C103.438 199.446 103.75 203.545 105.5 207.304C107.317 211.206 110.626 213.952 112.795 217.604C113.948 219.539 114.233 221.628 114.422 223.831C114.609 226.001 115.151 227.832 115.745 229.903C116.331 231.947 116.158 234.093 116.602 236.158C117.077 238.368 118.467 240.206 119.691 242.06C121.077 244.162 122.515 246.233 123.972 248.288C124.813 249.474 125.949 250.427 126.746 251.651C127.685 253.091 127.044 254.186 126.607 255.651C126.193 257.044 127.078 258.282 127.929 259.302C129.661 261.377 132.699 264.191 135.621 264.103C139.998 263.97 143.716 261.458 148.212 262.018C150.439 262.296 152.161 261.96 154.063 260.729C155.64 259.709 157.179 258.841 158.935 258.156C160.782 257.434 162.677 256.78 164.369 255.722C166.068 254.658 167.335 253.122 168.58 251.579C170.027 249.786 171.383 247.921 172.834 246.128C174.065 244.606 175.621 243.23 176.59 241.518C177.679 239.595 177.201 237.582 177.519 235.507C177.777 233.832 178.577 231.954 179.713 230.693C181.032 229.232 183.154 229.103 184.632 227.879C185.913 226.821 186.595 225.167 186.903 223.57C187.578 220.085 186.456 216.658 186.818 213.193C187.127 210.237 189.449 208.508 191.571 206.721C194.88 203.938 198.206 201.084 201.999 198.975C204.867 197.378 208.142 195.92 209.773 192.886C211.871 188.981 210.536 184.221 211.014 180.014C211.248 177.96 212.309 175.593 210.915 173.722C210.041 172.546 208.58 172.013 207.715 170.84C206.301 168.918 207.505 166.708 207.268 164.589C207.074 162.86 205.766 161.65 205.152 160.094C204.017 157.212 206.522 153.683 208.098 151.449C210.268 148.371 213.18 145.984 215.543 143.075C216.845 141.472 217.597 139.573 218.811 137.919C219.916 136.41 221.435 135.336 222.713 133.99C225.703 130.847 228.069 127.467 231.565 124.802H231.066C233.829 124.569 234.446 120.707 235.131 118.632C235.619 117.165 236.406 116.097 237.409 114.924C238.86 113.229 239.311 111.591 239.725 109.438C240.477 105.523 244.044 102.845 244.759 98.9562C245.179 96.6577 244.203 92.7489 246.847 91.5047C246.624 90.6809 245.983 90.4436 245.42 89.7825Z" fill="#FF4D00"/>
<path d="M242.993 191.11C242.546 190.459 242.804 189.625 242.851 188.91C243.017 186.466 241.885 182.957 239.878 181.462L239.122 182.218C235.03 183.784 237.952 185.706 235.847 187.784C235.711 187.578 235.454 187.286 235.294 187.042C233.687 187.652 232.996 189.195 232.135 190.554C230.986 192.371 229.277 193.863 227.395 194.887C224.849 196.27 221.097 196.243 219.595 199.111C219.181 199.897 219.415 200.199 219.456 201.009C219.493 201.809 218.527 201.826 218.259 202.426C217.296 204.562 217.435 206.149 218.127 208.318C219.31 212.031 216.439 214.102 214.71 216.963C213.801 218.465 213.737 219.611 214.435 221.18C215.191 222.872 214.093 225.052 213.93 226.808C213.754 228.679 214.418 230.466 216.106 231.449C217.676 232.364 219.378 231.615 220.907 231.015C222.459 230.405 223.805 230.198 225.46 230.374C227.314 230.571 228.243 229.513 228.88 227.842C229.602 225.957 230.104 224.245 231.314 222.591C232.623 220.797 233.938 219.112 234.566 216.943C235.027 215.353 235.322 213.743 235.986 212.214C236.695 210.586 237.539 209.02 238.23 207.386C239.657 204.013 239.82 200.423 240.251 196.836C240.888 195.822 241.986 195.538 242.888 196.355C243.905 195.304 244.583 194.053 244.149 192.564C243.977 191.924 243.349 191.625 242.993 191.11Z" fill="#FF4D00"/>
</svg>
