<svg width="76" height="48" viewBox="0 0 76 48" fill="none" xmlns="http://www.w3.org/2000/svg">
<path d="M46.2919 2.05981V41.067H19.7207C19.7207 38.3756 17.5389 36.1938 14.8475 36.1938C12.1561 36.1938 9.97428 38.3756 9.97428 41.067H0V2.05981H46.2919Z" fill="#E0E0E0"/>
<path d="M69 28.2631V41.0669H62.5191C62.5191 38.3755 60.3373 36.1937 57.6459 36.1937C54.9546 36.1937 52.7727 38.3755 52.7727 41.0669H46.2919V11.0867H56.189L69 28.2631Z" fill="#FF6600"/>
<path d="M19.7207 41.0668C19.7207 43.7582 17.5389 45.94 14.8475 45.94C12.1561 45.94 9.9743 43.7582 9.9743 41.0668C9.9743 38.3754 12.1561 36.1936 14.8475 36.1936C17.5389 36.1936 19.7207 38.3754 19.7207 41.0668Z" fill="#1A1A1A"/>
<path d="M62.5192 41.0668C62.5192 43.7582 60.3374 45.94 57.646 45.94C54.9546 45.94 52.7728 43.7582 52.7728 41.0668C52.7728 38.3754 54.9546 36.1936 57.646 36.1936C60.3374 36.1936 62.5192 38.3754 62.5192 41.0668Z" fill="#1A1A1A"/>
</svg>
