<svg width="50" height="48" viewBox="0 0 50 48" fill="none" xmlns="http://www.w3.org/2000/svg">
<path d="M25.2506 11.942V27.1626C24.9153 27.4308 24.6437 27.7849 24.47 28.1993C24.262 28.6962 23.9147 29.1053 23.4849 29.389C23.0551 29.6744 22.5444 29.836 22.0063 29.836H18.1861C16.4583 29.836 15.0571 31.2355 15.0571 32.9634C15.0571 33.8264 15.4078 34.6087 15.9734 35.1743C16.5391 35.7417 17.3231 36.0907 18.1861 36.0907H14.347L7.27915 28.3042C7.25508 28.2767 7.231 28.2509 7.20349 28.2251V0H19.2778V11.942H25.2506Z" fill="#FF5500"/>
<path d="M43.2958 0V33.1061L39.6854 29.4973C37.808 27.6182 35.26 26.5643 32.6038 26.5643H26.9336C26.3078 26.5643 25.7181 26.7826 25.2505 27.1626V11.942H31.2198V0H43.2958Z" fill="#FF6600"/>
<path d="M25.2505 0H19.2778V11.942H25.2505V0Z" fill="#E0E0E0"/>
<path d="M31.2198 0H25.2505V11.942H31.2198V0Z" fill="#F2F2F2"/>
<path d="M49.3941 27.7213H43.2959V48H49.3941V27.7213Z" fill="#FF5500"/>
<path d="M43.2958 33.106V45.648H15.7962C14.3985 45.648 13.0575 45.0927 12.0689 44.1041L1.64159 33.6768C0.873082 32.9083 0.5 31.9128 0.5 30.926C0.5 29.6829 1.08971 28.452 2.2227 27.6903C3.79754 26.6313 5.89847 26.8634 7.20339 28.225C7.2309 28.2508 7.25498 28.2766 7.27905 28.3041L14.3469 36.0906H18.186C17.323 36.0906 16.539 35.7416 15.9733 35.1743C15.4077 34.6086 15.057 33.8264 15.057 32.9633C15.057 31.2355 16.4582 29.836 18.186 29.836H22.0062C22.5443 29.836 23.055 29.6744 23.4848 29.389C23.9146 29.1053 24.2619 28.6961 24.4699 28.1992C24.8877 27.2089 25.8591 26.5642 26.9336 26.5642H32.6037C35.26 26.5642 37.8079 27.6181 39.6854 29.4973L43.2958 33.106Z" fill="#FFB786"/>
</svg>
