<svg width="58" height="48" viewBox="0 0 58 48" fill="none" xmlns="http://www.w3.org/2000/svg">
<path d="M0.5 9.40637L29.1907 19.3093V48L0.5 38.0955V9.40637Z" fill="#FF6600"/>
<path d="M57.8814 9.40637L29.1907 19.3093V48L57.8814 38.0955V9.40637Z" fill="#FF8A3A"/>
<path d="M57.8798 9.40638L29.1907 19.3109L16.7691 15.023L13.6461 13.944L0.5 9.40638L30.443 0L41.7684 3.88341L46.7511 5.59168L57.8798 9.40638Z" fill="#FFB786"/>
<path d="M46.7511 5.59169L45.669 5.93053L41.3624 7.28277L16.7691 15.009L13.6461 13.9441V13.8629C13.6461 13.1805 14.0896 12.5778 14.7392 12.3716L41.7684 3.88342L46.7511 5.59169Z" fill="#F2F2F2"/>
<path d="M16.7691 15.009V24.545C16.7691 25.4069 16.0695 26.1065 15.2076 26.1065C14.3457 26.1065 13.6461 25.4069 13.6461 24.545V13.9441L16.7691 15.009Z" fill="#E0E0E0"/>
</svg>
