<svg width="25" height="24" viewBox="0 0 25 24" fill="none" xmlns="http://www.w3.org/2000/svg">
<path d="M12.9043 13.314L17.8543 8.364C17.9466 8.26849 18.0569 8.19231 18.1789 8.1399C18.3009 8.08749 18.4322 8.05991 18.5649 8.05875C18.6977 8.0576 18.8294 8.0829 18.9523 8.13318C19.0752 8.18346 19.1868 8.25772 19.2807 8.35161C19.3746 8.4455 19.4489 8.55715 19.4992 8.68005C19.5494 8.80295 19.5747 8.93463 19.5736 9.06741C19.5724 9.20018 19.5448 9.3314 19.4924 9.45341C19.44 9.57541 19.3638 9.68576 19.2683 9.778L13.6113 15.435C13.4238 15.6225 13.1695 15.7278 12.9043 15.7278C12.6392 15.7278 12.3849 15.6225 12.1973 15.435L6.54033 9.778C6.44482 9.68576 6.36864 9.57541 6.31623 9.45341C6.26382 9.3314 6.23624 9.20018 6.23508 9.06741C6.23393 8.93463 6.25923 8.80295 6.30951 8.68005C6.35979 8.55715 6.43405 8.4455 6.52794 8.35161C6.62183 8.25772 6.73348 8.18346 6.85638 8.13318C6.97928 8.0829 7.11096 8.0576 7.24374 8.05875C7.37652 8.05991 7.50774 8.08749 7.62974 8.1399C7.75174 8.19231 7.86209 8.26849 7.95433 8.364L12.9043 13.314Z" fill="#1A1A1A"/>
</svg>
