<svg width="148" height="32" viewBox="0 0 148 32" fill="none" xmlns="http://www.w3.org/2000/svg">
<rect x="0.5" y="0.5" width="147" height="31" rx="15.5" fill="white"/>
<rect x="0.5" y="0.5" width="147" height="31" rx="15.5" stroke="#E1E4ED"/>
<path fill-rule="evenodd" clip-rule="evenodd" d="M26.2533 13.7666L23.9999 8.65723L21.7466 13.7666L16.6353 16.0199L21.7466 18.2732L23.9999 23.3852L26.2533 18.2732L31.3646 16.0199L26.2533 13.7666Z" fill="#1A1A1A"/>
<path d="M43.9403 22L40.6562 10.3636H42.9233L45.0199 18.9148H45.1278L47.3665 10.3636H49.429L51.6733 18.9205H51.7756L53.8722 10.3636H56.1392L52.8551 22H50.7756L48.446 13.8352H48.3551L46.0199 22H43.9403ZM59.5668 16.8864V22H57.5099V10.3636H59.5213V14.7557H59.6236C59.8281 14.2633 60.1444 13.875 60.5724 13.5909C61.0043 13.303 61.5535 13.1591 62.2202 13.1591C62.8262 13.1591 63.3546 13.286 63.8054 13.5398C64.2562 13.7936 64.6046 14.1648 64.8509 14.6534C65.1009 15.142 65.2259 15.7386 65.2259 16.4432V22H63.169V16.7614C63.169 16.1742 63.0175 15.7178 62.7145 15.392C62.4152 15.0625 61.9948 14.8977 61.4531 14.8977C61.0895 14.8977 60.7637 14.9773 60.4759 15.1364C60.1918 15.2917 59.9683 15.517 59.8054 15.8125C59.6463 16.108 59.5668 16.4659 59.5668 16.8864ZM69.8338 22.1761C69.2808 22.1761 68.7827 22.0777 68.3395 21.8807C67.9001 21.6799 67.5516 21.3845 67.294 20.9943C67.0402 20.6042 66.9134 20.1231 66.9134 19.5511C66.9134 19.0587 67.0043 18.6515 67.1861 18.3295C67.3679 18.0076 67.616 17.75 67.9304 17.5568C68.2448 17.3636 68.599 17.2178 68.9929 17.1193C69.3906 17.017 69.8016 16.9432 70.2259 16.8977C70.7372 16.8447 71.152 16.7973 71.4702 16.7557C71.7884 16.7102 72.0194 16.642 72.1634 16.5511C72.3111 16.4564 72.3849 16.3106 72.3849 16.1136V16.0795C72.3849 15.6515 72.258 15.3201 72.0043 15.0852C71.7505 14.8504 71.3849 14.733 70.9077 14.733C70.4039 14.733 70.0043 14.8428 69.7088 15.0625C69.4171 15.2822 69.2202 15.5417 69.1179 15.8409L67.1974 15.5682C67.349 15.0379 67.599 14.5947 67.9474 14.2386C68.2959 13.8788 68.7221 13.6098 69.2259 13.4318C69.7296 13.25 70.2865 13.1591 70.8963 13.1591C71.3168 13.1591 71.7353 13.2083 72.152 13.3068C72.5687 13.4053 72.9493 13.5682 73.294 13.7955C73.6387 14.0189 73.9152 14.3239 74.1236 14.7102C74.3357 15.0966 74.4418 15.5795 74.4418 16.1591V22H72.4645V20.8011H72.3963C72.2713 21.0436 72.0952 21.2708 71.8679 21.483C71.6444 21.6913 71.3622 21.8598 71.0213 21.9886C70.6842 22.1136 70.2884 22.1761 69.8338 22.1761ZM70.3679 20.6648C70.7808 20.6648 71.1387 20.5833 71.4418 20.4205C71.7448 20.2538 71.9777 20.0341 72.1406 19.7614C72.3073 19.4886 72.3906 19.1913 72.3906 18.8693V17.8409C72.3262 17.8939 72.2164 17.9432 72.0611 17.9886C71.9096 18.0341 71.7391 18.0739 71.5497 18.108C71.3603 18.142 71.1728 18.1723 70.9872 18.1989C70.8016 18.2254 70.6406 18.2481 70.5043 18.267C70.1974 18.3087 69.9228 18.3769 69.6804 18.4716C69.438 18.5663 69.2467 18.6989 69.1065 18.8693C68.9664 19.036 68.8963 19.2519 68.8963 19.517C68.8963 19.8958 69.0346 20.1818 69.3111 20.375C69.5876 20.5682 69.9399 20.6648 70.3679 20.6648ZM80.8679 13.2727V14.8636H75.8509V13.2727H80.8679ZM77.0895 11.1818H79.1463V19.375C79.1463 19.6515 79.188 19.8636 79.2713 20.0114C79.3584 20.1553 79.4721 20.2538 79.6122 20.3068C79.7524 20.3598 79.9077 20.3864 80.0781 20.3864C80.2069 20.3864 80.3243 20.3769 80.4304 20.358C80.5402 20.339 80.6236 20.322 80.6804 20.3068L81.027 21.9148C80.9171 21.9527 80.7599 21.9943 80.5554 22.0398C80.3546 22.0852 80.1084 22.1117 79.8168 22.1193C79.3016 22.1345 78.8376 22.0568 78.4247 21.8864C78.0118 21.7121 77.6842 21.4432 77.4418 21.0795C77.2031 20.7159 77.0857 20.2614 77.0895 19.7159V11.1818ZM84.7386 10.3636V11.5227C84.7386 11.8561 84.6742 12.2027 84.5455 12.5625C84.4205 12.9186 84.2481 13.2595 84.0284 13.5852C83.8087 13.9072 83.5587 14.1837 83.2784 14.4148L82.3239 13.7955C82.5322 13.4811 82.714 13.142 82.8693 12.7784C83.0246 12.411 83.1023 11.9962 83.1023 11.5341V10.3636H84.7386ZM92.1733 15.5795L90.2983 15.7841C90.2453 15.5947 90.1525 15.4167 90.0199 15.25C89.8911 15.0833 89.7169 14.9489 89.4972 14.8466C89.2775 14.7443 89.0085 14.6932 88.6903 14.6932C88.2623 14.6932 87.9025 14.786 87.6108 14.9716C87.3229 15.1572 87.1809 15.3977 87.1847 15.6932C87.1809 15.947 87.2737 16.1534 87.4631 16.3125C87.6563 16.4716 87.9744 16.6023 88.4176 16.7045L89.9062 17.0227C90.732 17.2008 91.3456 17.483 91.7472 17.8693C92.1525 18.2557 92.357 18.7614 92.3608 19.3864C92.357 19.9356 92.196 20.4205 91.8778 20.8409C91.5634 21.2576 91.1259 21.5833 90.5653 21.8182C90.0047 22.053 89.3608 22.1705 88.6335 22.1705C87.5653 22.1705 86.7055 21.947 86.054 21.5C85.4025 21.0492 85.0142 20.4223 84.8892 19.6193L86.8949 19.4261C86.9858 19.8201 87.179 20.1174 87.4744 20.3182C87.7699 20.5189 88.1544 20.6193 88.6278 20.6193C89.1165 20.6193 89.5085 20.5189 89.804 20.3182C90.1032 20.1174 90.2528 19.8693 90.2528 19.5739C90.2528 19.3239 90.1563 19.1174 89.9631 18.9545C89.7737 18.7917 89.4782 18.6667 89.0767 18.5795L87.5881 18.267C86.7509 18.0928 86.1316 17.7992 85.7301 17.3864C85.3286 16.9697 85.1297 16.4432 85.1335 15.8068C85.1297 15.2689 85.2756 14.803 85.571 14.4091C85.8703 14.0114 86.285 13.7045 86.8153 13.4886C87.3494 13.2689 87.965 13.1591 88.6619 13.1591C89.6847 13.1591 90.4896 13.3769 91.0767 13.8125C91.6676 14.2481 92.0331 14.8371 92.1733 15.5795ZM107.679 10.3636V22H105.804L100.321 14.0739H100.224V22H98.1165V10.3636H100.003L105.48 18.2955H105.582V10.3636H107.679ZM113.749 22.1705C112.874 22.1705 112.118 21.9886 111.482 21.625C110.849 21.2576 110.362 20.7386 110.021 20.0682C109.68 19.3939 109.51 18.6004 109.51 17.6875C109.51 16.7898 109.68 16.0019 110.021 15.3239C110.366 14.642 110.847 14.1117 111.464 13.733C112.082 13.3504 112.807 13.1591 113.641 13.1591C114.179 13.1591 114.686 13.2462 115.163 13.4205C115.644 13.5909 116.069 13.8561 116.436 14.2159C116.807 14.5758 117.099 15.0341 117.311 15.5909C117.523 16.1439 117.629 16.803 117.629 17.5682V18.1989H110.476V16.8125H115.658C115.654 16.4186 115.569 16.0682 115.402 15.7614C115.235 15.4508 115.002 15.2064 114.703 15.0284C114.408 14.8504 114.063 14.7614 113.669 14.7614C113.249 14.7614 112.879 14.8636 112.561 15.0682C112.243 15.2689 111.995 15.5341 111.817 15.8636C111.643 16.1894 111.554 16.5473 111.55 16.9375V18.1477C111.55 18.6553 111.643 19.0909 111.828 19.4545C112.014 19.8144 112.273 20.0909 112.607 20.2841C112.94 20.4735 113.33 20.5682 113.777 20.5682C114.076 20.5682 114.347 20.5265 114.589 20.4432C114.832 20.3561 115.042 20.2292 115.22 20.0625C115.398 19.8958 115.533 19.6894 115.624 19.4432L117.544 19.6591C117.423 20.1667 117.192 20.6098 116.851 20.9886C116.514 21.3636 116.082 21.6553 115.555 21.8636C115.029 22.0682 114.427 22.1705 113.749 22.1705ZM121.124 22L118.658 13.2727H120.754L122.288 19.4091H122.368L123.936 13.2727H126.01L127.578 19.375H127.663L129.175 13.2727H131.277L128.805 22H126.663L125.027 16.1023H124.908L123.271 22H121.124Z" fill="#1A1A1A"/>
</svg>
