<svg width="30" height="30" viewBox="0 0 30 30" fill="none" xmlns="http://www.w3.org/2000/svg">
<rect width="30" height="30" rx="15" fill="#1381E8" fill-opacity="0.1"/>
<path d="M20.6501 6.43304L15.5088 9.80804C15.3573 9.90784 15.1798 9.96103 14.9984 9.96103C14.8169 9.96103 14.6394 9.90784 14.4879 9.80804L9.34664 6.43304C9.28054 6.38937 9.20385 6.36441 9.12471 6.36081C9.04557 6.3572 8.96693 6.3751 8.89714 6.41259C8.82734 6.45008 8.76901 6.50577 8.72831 6.57375C8.68762 6.64172 8.66609 6.71945 8.66602 6.79867V19.4324C8.66609 19.5049 8.6841 19.5762 8.71846 19.64C8.75281 19.7038 8.80243 19.7581 8.86289 19.798L14.4373 23.474C14.6013 23.5821 14.7935 23.6398 14.9899 23.6398C15.1864 23.6398 15.3785 23.5821 15.5426 23.474L21.1338 19.8009C21.1943 19.7609 21.2439 19.7066 21.2783 19.6428C21.3126 19.579 21.3306 19.5077 21.3307 19.4352V6.79867C21.3306 6.71945 21.3091 6.64172 21.2684 6.57375C21.2277 6.50577 21.1694 6.45008 21.0996 6.41259C21.0298 6.3751 20.9512 6.3572 20.872 6.36081C20.7929 6.36441 20.7162 6.38937 20.6501 6.43304ZM14.9998 19.6012C14.1691 19.6012 13.3572 19.3548 12.6666 18.8933C11.976 18.4318 11.4378 17.7758 11.1201 17.0084C10.8023 16.2409 10.7193 15.3965 10.8816 14.5819C11.0438 13.7673 11.444 13.0191 12.0316 12.4319C12.6191 11.8448 13.3676 11.4451 14.1823 11.2834C14.997 11.1217 15.8414 11.2052 16.6086 11.5235C17.3759 11.8417 18.0315 12.3804 18.4925 13.0713C18.9536 13.7622 19.1994 14.5743 19.1988 15.4049C19.1981 16.5181 18.7554 17.5854 17.968 18.3723C17.1806 19.1592 16.1129 19.6012 14.9998 19.6012Z" fill="#1381E8"/>
<path d="M17.5843 13.1379L14.274 15.6467L12.384 14.8029C12.3509 14.788 12.3138 14.7845 12.2785 14.7931C12.2433 14.8016 12.2119 14.8217 12.1893 14.8501C12.1667 14.8785 12.1542 14.9136 12.1538 14.9499C12.1534 14.9862 12.1652 15.0215 12.1871 15.0504L14.1362 17.6407C14.1514 17.6606 14.171 17.6766 14.1935 17.6877C14.2159 17.6987 14.2406 17.7045 14.2656 17.7045C14.2906 17.7045 14.3153 17.6987 14.3377 17.6877C14.3601 17.6766 14.3797 17.6606 14.3949 17.6407L17.8121 13.3685C17.8373 13.3373 17.8501 13.298 17.8481 13.2579C17.846 13.2179 17.8294 13.18 17.8012 13.1515C17.773 13.123 17.7354 13.1059 17.6954 13.1033C17.6554 13.1008 17.6158 13.1131 17.5843 13.1379Z" fill="#1381E8"/>
</svg>
